<svg id="eAhfo21it9Z1" xmlns="http://www.w3.org/2000/svg" xmlns:xlink="http://www.w3.org/1999/xlink" viewBox="-90 -150 1700 1200" shape-rendering="geometricPrecision" text-rendering="geometricPrecision"><path d="M348.6,276.82c17,150.7-51.07,282.32-56.43,459.48-.26,8.58-.58,27.49,11.64,42.1c23.33,27.91,85.82,32.31,119.13,4.48c40.24-33.62,7.9-88.18,52.84-152.27c26.72-38.1,71.93-67,88.68-56.43c29.48,18.58-44.36,149.88,6.27,207.8c15.06,17.24,35.82,25.08,35.82,25.08s30.24,11.42,66.28,0c67.8-21.47,50.77-497,48.37-558.9.45-12.75-.63-37.67-17-51.06-28.1-22.95-90.95-3.58-113.75,33.14-34.67,55.83,42.6,120.62,9.85,187.2-21.82,44.37-84.44,73.13-111.06,56.43C437.56,441.45,538.8,262.49,465,196.21c-29.68-26.67-83.24-30.9-106.58-9.86-21.71,19.65-13.51,57.8-9.82,90.47Z" transform="translate(-196.9-42.36)" fill="none" stroke="#fff" stroke-width="11" stroke-miterlimit="10"/><path d="M763.13,561.65c-36,50-49.38,135.57,5.38,191.67c52.84,54.15,143.6,54.63,180.92,17c63.53-64-9.75-256.5-93.15-266-47.91-5.46-88.37,50.68-93.15,57.33Z" transform="translate(-196.9-42.36)" fill="none" stroke="#fff" stroke-width="11" stroke-miterlimit="10"/><path d="M968.24,457.75c-40.88,66.41,43.13,140.23,62.7,295.57c1.56,12.35,3.6,32.31,14.33,35.83c30.23,9.92,84.71-125.32,120-116.44c27.67,7,15,95.18,33.14,98.52c28.61,5.27,127.37-201.42,60.91-270.49-17.81-18.51-49.7-29.44-64.49-18.81-27.19,19.55,7.14,109.28-3.58,112.86-8.18,2.72-25-50.46-45.68-49.27-25.08,1.45-37.31,82.1-46.58,80.61-8.66-1.39,11.08-70.34-21.49-129.87-18.13-33.12-54.65-68.09-83.3-60.91-2.82.72-14.71,4.13-25.96,22.4Z" transform="translate(-196.9-42.36)" fill="none" stroke="#fff" stroke-width="11" stroke-miterlimit="10"/><path d="M1290.69,637.78c-5.11,45.36,20.31,98.59,68.07,111.06c47.39,12.38,86.36-22.14,89.57-25.08c10.48,5.26,35.9,16.45,52,5.38c10.36-7.15,12.55-20.65,13.43-26.87c20.53-144.73-40.3-407.54-40.3-407.54-3.57-15.42-11.09-48-25.08-49.26-14.8-1.36-29.11,33-34,44.78-32,76.76.64,190.75,32.25,271.4-6.32-3.87-40.94-24.23-82.41-12.54s-69.14,49.66-73.53,88.67Z" transform="translate(-196.9-42.36)" fill="none" stroke="#fff" stroke-width="11" stroke-miterlimit="10"/><path d="M1539.69,574.18c7.84,80.14,13.87,148.26,56.43,167.5c47.17,21.32,98.15-28.2,114.64-9.86c15,16.71-5.77,81.63-53.74,114.65-78.13,53.79-228.5,23.22-318.86-18.81-20.06-9.33-56.34-28.1-69.86-15.22-13,12.35.41,48.63,9.85,65.38c55.11,97.87,314.45,131.44,421,13.44c39.06-43.28,50.56-99.17,66.28-175.56c11.27-54.8,8.41-85.49,2.69-146.89-2.78-29.78-7.14-53.55-26-66.28-13.8-9.33-37.39-14.09-49.26-3.58-24.55,21.75,30,88.72,1.79,126.29-13.16,17.53-41.63,25.25-55.53,16.12-20-13.15,3.74-52.35-18.81-93.15-17.22-31.15-55.59-52.65-72.55-43-5.04,2.87-13.69,11.6-8.07,68.97Z" transform="translate(-196.9-42.36)" fill="none" stroke="#fff" stroke-width="11" stroke-miterlimit="10"/><path d="M807.35,598.71c-15,20.87-20.64,56.65,2.24,80.09c22.09,22.63,60,22.83,75.61,7.11c26.54-26.74-4.08-107.18-38.93-111.16-20.02-2.28-36.92,21.18-38.92,23.96Z" transform="translate(-196.9-42.36)" fill="none" stroke="#fff" stroke-width="11" stroke-miterlimit="10"/><path d="M1386.53,590.31c-20.61-2.26-38.54,15.06-45.68,31.35-10.06,22.9-4.13,55.93,17.91,66.28c23.84,11.18,58.55-7.93,65.38-36.73c6.35-26.73-12.14-58.12-37.61-60.9Z" transform="translate(-196.9-42.36)" fill="none" stroke="#fff" stroke-width="11" stroke-miterlimit="10"/><g id="eAhfo21it9Z9"><path d="" transform="translate(-196.9-42.36)" fill="none" stroke="#000" stroke-width="4" stroke-miterlimit="10"/><path id="eAhfo21it9Z11" d="M253.12,278.56l-1.7,4.23c-6.75,16.81-13.4,33.65-20.24,50.42-.24.59-.78,1.9-1.32,3.4l-1.16,3.23v0l-2.33,6.55v0c-1.17,3.31-2,5.71-2.1,6-4.77,13.63-17.38,32.17-17.46,48.07C206.75,412.32,213.66,427,225,432c20.71,9.16,47.82-17.91,52.07-22.15c6.97529-6.968745,12.798002-15.002399,17.25-23.8c23-44.06,109.17-62.51,183.54-92.06c37.876135-15.102215,74.296818-33.625518,108.81-55.34c7.83-3.15,27.34-12.29,38.64-33.25c14.41-26.74,5.55-54.31.77-69.19-10.89-33.88-34.34-52.76-42.69-59.3-5-3.94-32.44-24.81-73.8-28.13C454.46,44.39,414.84,74.36,405,82.26c-8.302535-7.417292-18.314555-12.660375-29.14-15.26-18.53-4.22-33.43,1.46-55.75,10.34-16,6.35-37.81,15.27-59.19,35.8-12.94,12.43-20,23.67-32.13,42.8-9.720197,15.39123-18.338413,31.451387-25.79,48.06.620306,9.115965,2.644138,18.081542,6,26.58c11.45,28.65,35,43.04,44.12,47.98Z" transform="translate(-196.9-42.36)" fill="#f6a7ab" stroke="#000" stroke-width="12" stroke-miterlimit="10"/><path d="M224.27,352.38c56.38-96.15,115.26-110.16,136.06-113.17c11.7-1.69,26.23-3.76,54.68-.15c8.5,1.07,90.5,11.09,135.31-1.3c8.4-2.33,20.73-6.2,31.93-16.67c8.657877-8.272539,15.03947-18.635309,18.53-30.09" transform="translate(-196.872976-42.36)" fill="#f6a7ab"/><path d="M229.45,355.41c5.85-10,12.1-19.71,18.83-29.1c5.684538-7.988231,11.793307-15.665918,18.3-23c5.727431-6.500726,11.795973-12.692774,18.18-18.55q4.38-4,9-7.77c.69-.56,1.38-1.12,2.08-1.67l1-.81.51-.41c.66-.52-.85.65-.18.15c1.4-1.06,2.8-2.13,4.23-3.16c9.640696-7.024286,20.014666-12.982445,30.94-17.77c1-.46-.69.28-.34.14l.81-.34l1.74-.7c1.08-.43,2.17-.84,3.26-1.24q3-1.11,6.12-2.07c3.51-1.08,7.06-2,10.66-2.78c2.94-.62,5.9-1.1,8.88-1.52l1.9-.27c.93-.13.42,0-.29,0l1.16-.16c1.46-.18,2.92-.36,4.39-.51c3.35-.35,6.72-.58,10.09-.71c13.68-.5,27.17,1.13,40.73,2.65q18.12,2,36.34,3.08c16.888126,1.081573,33.821287,1.278509,50.73.59c16.14-.75,32.5-2.45,48-7.29c9.781558-2.931856,18.9028-7.730186,26.86-14.13c8.106905-6.763109,14.598671-15.253655,19-24.85c1.6135-3.457167,3.003033-7.014506,4.16-10.65.423257-1.534284.219567-3.173873-.566244-4.557952s-2.089351-2.399228-3.623756-2.822048c-3.186156-.812695-6.445058,1.037548-7.38,4.19q-.72,2.3-1.58,4.55l-.48,1.22c-.08.21-.17.41-.26.62c0,0,.45-1,.16-.37-.45,1-.86,1.93-1.32,2.89q-1.47,3-3.21,5.88c-.6,1-1.23,2-1.88,2.93-.34.5-.68,1-1,1.48-.16.21-1.15,1.54-.73,1-6.330335,8.16717-14.677233,14.54624-24.22,18.51c1-.43-.51.2-.81.32l-1.46.56q-1.51.57-3.06,1.08c-1.78.6-3.59,1.13-5.4,1.64q-5.24,1.49-10.6,2.51-2.85.54-5.71,1l-2.83.41c-1.19.18.9-.11-.31.05l-1.68.21c-4.12.5-8.26.88-12.4,1.18-16.980444,1.08174-34.009767,1.165218-51,.25q-19.92-.93-39.77-3c-12.33-1.3-24.59-3-37-3.17-11.353187-.081826-22.688163.922751-33.85,3-7.406039,1.373436-14.669994,3.42542-21.7,6.13-10.833863,4.157558-21.184475,9.478718-30.87,15.87-12.909937,8.604848-24.849604,18.583071-35.61,29.76-14.22367,14.88024-26.951434,31.121537-38,48.49-3.18,4.92-6.25,9.93-9.22,15-1.673423,2.860835-.710835,6.536577,2.15,8.21s6.536577.710835,8.21-2.15Z" transform="translate(-196.9-42.36)"/><path d="M404.54,83l60,65.27c5.431817,5.68188,10.508116,11.693287,15.2,18" transform="translate(-196.9-42.36)" fill="#f6a7ab"/><path d="M401.36,86.2L461,151.11c2.66,2.9,5.33,5.79,7.91,8.77q1.86,2.13,3.64,4.32l.88,1.11c0,0,.84,1.08.45.57.67.88,1.32,1.76,2,2.66c1.37,1.9,4,3,6.16,1.61c1.89-1.22,3.08-4.11,1.61-6.16-4.332115-5.870531-9.006909-11.480283-14-16.8q-7.42-8.12-14.88-16.2l-30.2-32.82-16.85-18.33c-1.763639-1.738372-4.596361-1.738372-6.36,0-1.711922,1.774401-1.711922,4.585599,0,6.36Z" transform="translate(-196.9-42.36)"/><path d="M479.77,166.12c11.29-5.59,14.06-6.6,14.22-6.31s-3,2.24-7.33,5.43c0,0-4.91,3.6-12.61,10.42-11.58,10.23-21.32,28.08-39.77,47.17-8.29,8.58-15.07,13.83-24.38,15.32-4.468719.694492-9.031087.490511-13.42-.6" transform="translate(-196.9-42.36)" fill="#f6a7ab"/><path d="M482,170c3.56-1.76,7.12-3.53,10.75-5.13l.7-.31c.59-.25-1.19.48-.27.12.31-.12.62-.25.94-.36.219081-.042058.433459-.105702.64-.19.33-.21-1.13.13-1,.13-1.944192-.043882-3.630148-1.356084-4.15-3.23v-2.39c0-.15.62-1.66,1-1.77-.085835.059246-.163211.129894-.23.21-.47.57,1-.69.16-.13l-2.18,1.54c-1.4,1-2.8,1.94-4.16,3-2.16,1.6-4.27,3.29-6.34,5-3.426398,2.72329-6.713872,5.616934-9.85,8.67-2.614742,2.686373-5.088079,5.506845-7.41,8.45-2.82,3.51-5.54,7.11-8.27,10.69l-1.9,2.49-1,1.26c-.16.22-.33.43-.49.64.55-.71-.18.23-.29.38-1.51,1.94-3,3.87-4.58,5.79-6.54,8.06-13.45,16.1-21.5,22.69-1,.79.45-.32-.16.13-.26.18-.51.38-.76.56-.51.37-1,.72-1.54,1.06-1.0026.672214-2.040779,1.289781-3.11,1.85-.52.27-1,.54-1.59.78l-.65.29c.55-.24.39-.17-.07,0-1.108108.422638-2.240052.779918-3.39,1.07q-.79.21-1.59.36l-.91.16c-.23,0-1,.14-.44.07-1.503538.171599-3.017189.238427-4.53.2-.68,0-1.37-.06-2.05-.12l-.78-.07c-1-.09.77.14-.27,0s-2.1-.37-3.14-.62c-1.550533-.426932-3.21105.005765-4.35605,1.1351s-1.600532,2.783733-1.195,4.34s1.610517,2.777968,3.16105,3.2049c6.241834,1.550508,12.771444,1.523015,19-.08c5.645533-1.694564,10.867207-4.567848,15.32-8.43c5.213755-4.437893,10.056507-9.294022,14.48-14.52c4.37-5,8.51-10.16,12.55-15.4c1.76-2.27,3.49-4.56,5.23-6.84.82-1.07,1.64-2.15,2.47-3.22l.61-.79l1.52-1.93c2.86871-3.71645,5.989393-7.231395,9.34-10.52c3.77-3.59,7.85-6.92,11.95-10.13.32-.25,1.47-1.09.07-.06l.57-.43.62-.47c2.07-1.53,4.23-2.94,6.31-4.46c1.044762-.640669,1.941273-1.496274,2.63-2.51.698653-1.231035.795809-2.714027.263738-4.025691s-1.634911-2.307883-2.993738-2.704309c-1.265212-.259919-2.579461-.130934-3.77.37-4.76,1.79-9.32,4.19-13.87,6.44-2.136075,1.263016-2.858377,4.009547-1.62,6.16c1.297778,2.065265,3.977488,2.765843,6.12,1.6Z" transform="translate(-196.872976-42.36)"/><path d="M250.31,276.78q8.81,5.78,18,10.88" transform="translate(-196.9-42.36)" fill="#f6a7ab"/><path d="M247.28,282q8.82,5.78,18,10.88c2.74,1.52,6.67.75,8.21-2.15c1.616515-2.868423.664951-6.50207-2.15-8.21q-9.21-5.12-18-10.88c-2.864699-1.64488-6.519219-.68785-8.21,2.15-1.594397,2.871247-.647056,6.488768,2.15,8.21Z" transform="translate(-196.9-42.36)"/><path d="" transform="translate(-196.9-42.36)" fill="#f6a7ab" stroke="#000" stroke-width="10" stroke-miterlimit="10"/><path d="M475.91,161.52l-4.81,3.64c0,0-5,3.46-12.9,10.05-11.87,9.9-22.11,27.46-41.1,46-8.05,7.87-15.41,12.47-24.81,14.62-4.674483,1.060196-9.486797,1.377417-14.26.94" transform="translate(-196.9-42.36)" fill="#f6a7ab"/><path d="M473.64,157.63c-5.14,3.9-10.36,7.67-15.38,11.73-3.031329,2.394852-5.910257,4.976536-8.62,7.73-2.58,2.69-5,5.53-7.38,8.41-5.68,6.86-11.14,13.89-17,20.58-3.4,3.87-6.93,7.64-10.6,11.27-1.79,1.76-3.62,3.48-5.54,5.08-.42.36-.85.7-1.28,1-.12.1-.68.52-.05,0-.21.16-.42.33-.64.48-.89.66-1.8,1.29-2.73,1.9-2.019658,1.267399-4.117144,2.40632-6.28,3.41-.61.29.67-.27,0,0l-.86.35c-.59.22-1.18.44-1.77.64-1.08.36-2.18.68-3.29,1-1.39.35-2.8.64-4.22.86-.1,0-1.05.14-.53.08l-.74.08c-.7.07-1.4.12-2.11.16-2.200398.106672-4.405509.063238-6.6-.13-2.478473.01636-4.48364,2.021527-4.5,4.5.05805,2.460835,2.039165,4.44195,4.5,4.5c9.379.788326,18.789353-1.097906,27.14-5.44c8.83-4.59,16-12,22.63-19.19c6.34-6.88,12.18-14.17,18.07-21.43c4.67-5.76,9.4-11.63,15.06-16.46c2-1.75,4.14-3.43,6.25-5.09l1.28-1c.51-.4-.61.47-.12.09l.63-.48c.66-.5,1.33-1,2-1.51c2.41-1.78,4.81-3.56,7.2-5.38c1.87-1.41,3-3.94,1.61-6.15-1.19-1.85-4.15-3.14-6.15-1.62Z" transform="translate(-196.9-40.516539)"/></g><script><{"object"==typeof exports&&"undefined"!=typeof module?module.exports=n():"function"==typeof define&&define.amd?define(n):((t="undefined"!=typeof globalThis?globalThis:t||self).__SVGATOR_PLAYER__=t.__SVGATOR_PLAYER__||{},t.__SVGATOR_PLAYER__["5c7f360c"]=n())}(this,(function(){"use strict";function t(t,n){var r=Object.keys(t);if(Object.getOwnPropertySymbols){var e=Object.getOwnPropertySymbols(t);n&&(e=e.filter((function(n){return Object.getOwnPropertyDescriptor(t,n).enumerable}))),r.push.apply(r,e)}return r}function n(n){for(var r=1;r<arguments.length;r++){var e=null!=arguments[r]?arguments[r]:{};r%2?t(Object(e),!0).forEach((function(t){u(n,t,e[t])})):Object.getOwnPropertyDescriptors?Object.defineProperties(n,Object.getOwnPropertyDescriptors(e)):t(Object(e)).forEach((function(t){Object.defineProperty(n,t,Object.getOwnPropertyDescriptor(e,t))}))}return n}function r(t){return(r="function"==typeof Symbol&&"symbol"==typeof Symbol.iterator?function(t){return typeof t}:function(t){return t&&"function"==typeof Symbol&&t.constructor===Symbol&&t!==Symbol.prototype?"symbol":typeof t})(t)}function e(t,n){if(!(t instanceof n))throw new TypeError("Cannot call a class as a function")}function i(t,n){for(var r=0;r<n.length;r++){var e=n[r];e.enumerable=e.enumerable||!1,e.configurable=!0,"value"in e&&(e.writable=!0),Object.defineProperty(t,e.key,e)}}function o(t,n,r){return n&&i(t.prototype,n),r&&i(t,r),t}function u(t,n,r){return n in t?Object.defineProperty(t,n,{value:r,enumerable:!0,configurable:!0,writable:!0}):t[n]=r,t}function a(t){return(a=Object.setPrototypeOf?Object.getPrototypeOf:function(t){return t.__proto__||Object.getPrototypeOf(t)})(t)}function l(t,n){return(l=Object.setPrototypeOf||function(t,n){return t.__proto__=n,t})(t,n)}function f(){if("undefined"==typeof Reflect||!Reflect.construct)return!1;if(Reflect.construct.sham)return!1;if("function"==typeof Proxy)return!0;try{return Boolean.prototype.valueOf.call(Reflect.construct(Boolean,[],(function(){}))),!0}catch(t){return!1}}function s(t,n,r){return(s=f()?Reflect.construct:function(t,n,r){var e=[null];e.push.apply(e,n);var i=new(Function.bind.apply(t,e));return r&&l(i,r.prototype),i}).apply(null,arguments)}function c(t,n){if(n&&("object"==typeof n||"function"==typeof n))return n;if(void 0!==n)throw new TypeError("Derived constructors may only return object or undefined");return function(t){if(void 0===t)throw new ReferenceError("this hasn't been initialised - super() hasn't been called");return t}(t)}function h(t,n,r){return(h="undefined"!=typeof Reflect&&Reflect.get?Reflect.get:function(t,n,r){var e=function(t,n){for(;!Object.prototype.hasOwnProperty.call(t,n)&&null!==(t=a(t)););return t}(t,n);if(e){var i=Object.getOwnPropertyDescriptor(e,n);return i.get?i.get.call(r):i.value}})(t,n,r||t)}function v(t){return function(t){if(Array.isArray(t))return y(t)}(t)||function(t){if("undefined"!=typeof Symbol&&null!=t[Symbol.iterator]||null!=t["@@iterator"])return Array.from(t)}(t)||function(t,n){if(!t)return;if("string"==typeof t)return y(t,n);var r=Object.prototype.toString.call(t).slice(8,-1);"Object"===r&&t.constructor&&(r=t.constructor.name);if("Map"===r||"Set"===r)return Array.from(t);if("Arguments"===r||/^(?:Ui|I)nt(?:8|16|32)(?:Clamped)?Array$/.test(r))return y(t,n)}(t)||function(){throw new TypeError("Invalid attempt to spread non-iterable instance.\nIn order to be iterable, non-array objects must have a [Symbol.iterator]() method.")}()}function y(t,n){(null==n||n>t.length)&&(n=t.length);for(var r=0,e=new Array(n);r<n;r++)e[r]=t[r];return e}var g=d(Math.pow(10,-6));function d(t){var n=arguments.length>1&&void 0!==arguments[1]?arguments[1]:6;if(Number.isInteger(t))return t;var r=Math.pow(10,n);return Math.round((+t+Number.EPSILON)*r)/r}function p(t,n){var r=arguments.length>2&&void 0!==arguments[2]?arguments[2]:g;return Math.abs(t-n)<r}var m=Math.PI/180;function b(t){return t}function w(t,n,r){var e=1-r;return 3*r*e*(t*e+n*r)+r*r*r}function A(){var t=arguments.length>0&&void 0!==arguments[0]?arguments[0]:0,n=arguments.length>1&&void 0!==arguments[1]?arguments[1]:0,r=arguments.length>2&&void 0!==arguments[2]?arguments[2]:1,e=arguments.length>3&&void 0!==arguments[3]?arguments[3]:1;return t<0||t>1||r<0||r>1?null:p(t,n)&&p(r,e)?b:function(i){if(i<=0)return t>0?i*n/t:0===n&&r>0?i*e/r:0;if(i>=1)return r<1?1+(i-1)*(e-1)/(r-1):1===r&&t<1?1+(i-1)*(n-1)/(t-1):1;for(var o,u=0,a=1;u<a;){var l=w(t,r,o=(u+a)/2);if(p(i,l))break;l<i?u=o:a=o}return w(n,e,o)}}function x(){return 1}function k(t){return 1===t?1:0}function S(){var t=arguments.length>0&&void 0!==arguments[0]?arguments[0]:1,n=arguments.length>1&&void 0!==arguments[1]?arguments[1]:0;if(1===t){if(0===n)return k;if(1===n)return x}var r=1/t;return function(t){return t>=1?1:(t+=n*r)-t%r}}var _=Math.sin,O=Math.cos,j=Math.acos,M=Math.asin,P=Math.tan,E=Math.atan2,I=Math.PI/180,R=180/Math.PI,F=Math.sqrt,N=function(){function t(){var n=arguments.length>0&&void 0!==arguments[0]?arguments[0]:1,r=arguments.length>1&&void 0!==arguments[1]?arguments[1]:0,i=arguments.length>2&&void 0!==arguments[2]?arguments[2]:0,o=arguments.length>3&&void 0!==arguments[3]?arguments[3]:1,u=arguments.length>4&&void 0!==arguments[4]?arguments[4]:0,a=arguments.length>5&&void 0!==arguments[5]?arguments[5]:0;e(this,t),this.m=[n,r,i,o,u,a],this.i=null,this.w=null,this.s=null}return o(t,[{key:"determinant",get:function(){var t=this.m;return t[0]*t[3]-t[1]*t[2]}},{key:"isIdentity",get:function(){if(null===this.i){var t=this.m;this.i=1===t[0]&&0===t[1]&&0===t[2]&&1===t[3]&&0===t[4]&&0===t[5]}return this.i}},{key:"point",value:function(t,n){var r=this.m;return{x:r[0]*t+r[2]*n+r[4],y:r[1]*t+r[3]*n+r[5]}}},{key:"translateSelf",value:function(){var t=arguments.length>0&&void 0!==arguments[0]?arguments[0]:0,n=arguments.length>1&&void 0!==arguments[1]?arguments[1]:0;if(!t&&!n)return this;var r=this.m;return r[4]+=r[0]*t+r[2]*n,r[5]+=r[1]*t+r[3]*n,this.w=this.s=this.i=null,this}},{key:"rotateSelf",value:function(){var t=arguments.length>0&&void 0!==arguments[0]?arguments[0]:0;if(t%=360){var n=_(t*=I),r=O(t),e=this.m,i=e[0],o=e[1];e[0]=i*r+e[2]*n,e[1]=o*r+e[3]*n,e[2]=e[2]*r-i*n,e[3]=e[3]*r-o*n,this.w=this.s=this.i=null}return this}},{key:"scaleSelf",value:function(){var t=arguments.length>0&&void 0!==arguments[0]?arguments[0]:1,n=arguments.length>1&&void 0!==arguments[1]?arguments[1]:1;if(1!==t||1!==n){var r=this.m;r[0]*=t,r[1]*=t,r[2]*=n,r[3]*=n,this.w=this.s=this.i=null}return this}},{key:"skewSelf",value:function(t,n){if(n%=360,(t%=360)||n){var r=this.m,e=r[0],i=r[1],o=r[2],u=r[3];t&&(t=P(t*I),r[2]+=e*t,r[3]+=i*t),n&&(n=P(n*I),r[0]+=o*n,r[1]+=u*n),this.w=this.s=this.i=null}return this}},{key:"resetSelf",value:function(){var t=arguments.length>0&&void 0!==arguments[0]?arguments[0]:1,n=arguments.length>1&&void 0!==arguments[1]?arguments[1]:0,r=arguments.length>2&&void 0!==arguments[2]?arguments[2]:0,e=arguments.length>3&&void 0!==arguments[3]?arguments[3]:1,i=arguments.length>4&&void 0!==arguments[4]?arguments[4]:0,o=arguments.length>5&&void 0!==arguments[5]?arguments[5]:0,u=this.m;return u[0]=t,u[1]=n,u[2]=r,u[3]=e,u[4]=i,u[5]=o,this.w=this.s=this.i=null,this}},{key:"recomposeSelf",value:function(){var t=arguments.length>0&&void 0!==arguments[0]?arguments[0]:null,n=arguments.length>1&&void 0!==arguments[1]?arguments[1]:null,r=arguments.length>2&&void 0!==arguments[2]?arguments[2]:null,e=arguments.length>3&&void 0!==arguments[3]?arguments[3]:null,i=arguments.length>4&&void 0!==arguments[4]?arguments[4]:null;return this.isIdentity||this.resetSelf(),t&&(t.x||t.y)&&this.translateSelf(t.x,t.y),n&&this.rotateSelf(n),r&&(r.x&&this.skewSelf(r.x,0),r.y&&this.skewSelf(0,r.y)),!e||1===e.x&&1===e.y||this.scaleSelf(e.x,e.y),i&&(i.x||i.y)&&this.translateSelf(i.x,i.y),this}},{key:"decompose",value:function(){var t=arguments.length>0&&void 0!==arguments[0]?arguments[0]:0,n=arguments.length>1&&void 0!==arguments[1]?arguments[1]:0,r=this.m,e=r[0]*r[0]+r[1]*r[1],i=[[r[0],r[1]],[r[2],r[3]]],o=F(e);if(0===o)return{origin:{x:d(r[4]),y:d(r[5])},translate:{x:d(t),y:d(n)},scale:{x:0,y:0},skew:{x:0,y:0},rotate:0};i[0][0]/=o,i[0][1]/=o;var u=r[0]*r[3]-r[1]*r[2]<0;u&&(o=-o);var a=i[0][0]*i[1][0]+i[0][1]*i[1][1];i[1][0]-=i[0][0]*a,i[1][1]-=i[0][1]*a;var l=F(i[1][0]*i[1][0]+i[1][1]*i[1][1]);if(0===l)return{origin:{x:d(r[4]),y:d(r[5])},translate:{x:d(t),y:d(n)},scale:{x:d(o),y:0},skew:{x:0,y:0},rotate:0};i[1][0]/=l,i[1][1]/=l,a/=l;var f=0;return i[1][1]<0?(f=j(i[1][1])*R,i[0][1]<0&&(f=360-f)):f=M(i[0][1])*R,u&&(f=-f),a=E(a,F(i[0][0]*i[0][0]+i[0][1]*i[0][1]))*R,u&&(a=-a),{origin:{x:d(r[4]),y:d(r[5])},translate:{x:d(t),y:d(n)},scale:{x:d(o),y:d(l)},skew:{x:d(a),y:0},rotate:d(f)}}},{key:"clone",value:function(){var t=this.m;return new this.constructor(t[0],t[1],t[2],t[3],t[4],t[5])}},{key:"toString",value:function(){var t=arguments.length>0&&void 0!==arguments[0]?arguments[0]:" ";if(null===this.s){var n=this.m.map((function(t){return d(t)}));1===n[0]&&0===n[1]&&0===n[2]&&1===n[3]?this.s="translate("+n[4]+t+n[5]+")":this.s="matrix("+n.join(t)+")"}return this.s}}],[{key:"create",value:function(t){return t?Array.isArray(t)?s(this,v(t)):t instanceof this?t.clone():(new this).recomposeSelf(t.origin,t.rotate,t.skew,t.scale,t.translate):new this}}]),t}();function T(t,n,r){return t>=.5?r:n}function B(t,n,r){return 0===t||n===r?n:t*(r-n)+n}function q(t,n,r){var e=B(t,n,r);return e<=0?0:e}function L(t,n,r){var e=B(t,n,r);return e<=0?0:e>=1?1:e}function C(t,n,r){return 0===t?n:1===t?r:{x:B(t,n.x,r.x),y:B(t,n.y,r.y)}}function D(t,n,r){var e=function(t,n,r){return Math.round(B(t,n,r))}(t,n,r);return e<=0?0:e>=255?255:e}function z(t,n,r){return 0===t?n:1===t?r:{r:D(t,n.r,r.r),g:D(t,n.g,r.g),b:D(t,n.b,r.b),a:B(t,null==n.a?1:n.a,null==r.a?1:r.a)}}function V(t,n){for(var r=[],e=0;e<t;e++)r.push(n);return r}function G(t,n){if(--n<=0)return t;var r=(t=Object.assign([],t)).length;do{for(var e=0;e<r;e++)t.push(t[e])}while(--n>0);return t}var Y,$=function(){function t(n){e(this,t),this.list=n,this.length=n.length}return o(t,[{key:"setAttribute",value:function(t,n){for(var r=this.list,e=0;e<this.length;e++)r[e].setAttribute(t,n)}},{key:"removeAttribute",value:function(t){for(var n=this.list,r=0;r<this.length;r++)n[r].removeAttribute(t)}},{key:"style",value:function(t,n){for(var r=this.list,e=0;e<this.length;e++)r[e].style[t]=n}}]),t}(),U=/-./g,Q=function(t,n){return n.toUpperCase()};function H(t){return"function"==typeof t?t:T}function J(t){return t?"function"==typeof t?t:Array.isArray(t)?function(t){var n=arguments.length>1&&void 0!==arguments[1]?arguments[1]:b;if(!Array.isArray(t))return n;switch(t.length){case 1:return S(t[0])||n;case 2:return S(t[0],t[1])||n;case 4:return A(t[0],t[1],t[2],t[3])||n}return n}(t,null):function(t,n){var r=arguments.length>2&&void 0!==arguments[2]?arguments[2]:b;switch(t){case"linear":return b;case"steps":return S(n.steps||1,n.jump||0)||r;case"bezier":case"cubic-bezier":return A(n.x1||0,n.y1||0,n.x2||0,n.y2||0)||r}return r}(t.type,t.value,null):null}function Z(t,n,r){var e=arguments.length>3&&void 0!==arguments[3]&&arguments[3],i=n.length-1;if(t<=n[0].t)return e?[0,0,n[0].v]:n[0].v;if(t>=n[i].t)return e?[i,1,n[i].v]:n[i].v;var o,u=n[0],a=null;for(o=1;o<=i;o++){if(!(t>n[o].t)){a=n[o];break}u=n[o]}return null==a?e?[i,1,n[i].v]:n[i].v:u.t===a.t?e?[o,1,a.v]:a.v:(t=(t-u.t)/(a.t-u.t),u.e&&(t=u.e(t)),e?[o,t,r(t,u.v,a.v)]:r(t,u.v,a.v))}function K(t,n){var r=arguments.length>2&&void 0!==arguments[2]?arguments[2]:null;return t&&t.length?"function"!=typeof n?null:("function"!=typeof r&&(r=null),function(e){var i=Z(e,t,n);return null!=i&&r&&(i=r(i)),i}):null}function W(t,n){return t.t-n.t}function X(t,n,e,i,o){var u,a="@"===e[0],l="#"===e[0],f=Y[e],s=T;switch(a?(u=e.substr(1),e=u.replace(U,Q)):l&&(e=e.substr(1)),r(f)){case"function":if(s=f(i,o,Z,J,e,a,n,t),l)return s;break;case"string":s=K(i,H(f));break;case"object":if((s=K(i,H(f.i),f.f))&&"function"==typeof f.u)return f.u(n,s,e,a,t)}return s?function(t,n,r){if(arguments.length>3&&void 0!==arguments[3]&&arguments[3])return t instanceof $?function(e){return t.style(n,r(e))}:function(e){return t.style[n]=r(e)};if(Array.isArray(n)){var e=n.length;return function(i){var o=r(i);if(null==o)for(var u=0;u<e;u++)t[u].removeAttribute(n);else for(var a=0;a<e;a++)t[a].setAttribute(n,o)}}return function(e){var i=r(e);null==i?t.removeAttribute(n):t.setAttribute(n,i)}}(n,e,s,a):null}function tt(t,n,e,i){if(!i||"object"!==r(i))return null;var o=null,u=null;return Array.isArray(i)?u=function(t){if(!t||!t.length)return null;for(var n=0;n<t.length;n++)t[n].e&&(t[n].e=J(t[n].e));return t.sort(W)}(i):(u=i.keys,o=i.data||null),u?X(t,n,e,u,o):null}function nt(t,n,r){if(!r)return null;var e=[];for(var i in r)if(r.hasOwnProperty(i)){var o=tt(t,n,i,r[i]);o&&e.push(o)}return e.length?e:null}function rt(t,n){if(!n.duration||n.duration<0)return null;var r=function(t,n){if(!n)return null;var r=[];if(Array.isArray(n))for(var e=n.length,i=0;i<e;i++){var o=n[i];if(2===o.length){var u=null;if("string"==typeof o[0])u=t.getElementById(o[0]);else if(Array.isArray(o[0])){u=[];for(var a=0;a<o[0].length;a++)if("string"==typeof o[0][a]){var l=t.getElementById(o[0][a]);l&&u.push(l)}u=u.length?1===u.length?u[0]:new $(u):null}if(u){var f=nt(t,u,o[1]);f&&(r=r.concat(f))}}}else for(var s in n)if(n.hasOwnProperty(s)){var c=t.getElementById(s);if(c){var h=nt(t,c,n[s]);h&&(r=r.concat(h))}}return r.length?r:null}(t,n.elements);return r?function(t,n){var r=arguments.length>2&&void 0!==arguments[2]?arguments[2]:1/0,e=arguments.length>3&&void 0!==arguments[3]?arguments[3]:1,i=arguments.length>4&&void 0!==arguments[4]&&arguments[4],o=arguments.length>5&&void 0!==arguments[5]?arguments[5]:1,u=t.length,a=e>0?n:0;i&&r%2==0&&(a=n-a);var l=null;return function(f,s){var c=f%n,h=1+(f-c)/n;s*=e,i&&h%2==0&&(s=-s);var v=!1;if(h>r)c=a,v=!0,-1===o&&(c=e>0?0:n);else if(s<0&&(c=n-c),c===l)return!1;l=c;for(var y=0;y<u;y++)t[y](c);return v}}(r,n.duration,n.iterations||1/0,n.direction||1,!!n.alternate,n.fill||1):null}function et(t){return+("0x"+(t.replace(/[^0-9a-fA-F]+/g,"")||27))}function it(t,n,r){return!t||!r||n>t.length?t:t.substring(0,n)+it(t.substring(n+1),r,r)}function ot(t){var n=arguments.length>1&&void 0!==arguments[1]?arguments[1]:27;return!t||t%n?t%n:ot(t/n,n)}function ut(t,n,r){if(t&&t.length){var e=et(r),i=et(n),o=ot(e)+5,u=it(t,ot(e,5),o);return u=u.replace(/\x7c$/g,"==").replace(/\x2f$/g,"="),u=function(t,n,r){var e=+("0x"+t.substring(0,4));t=t.substring(4);for(var i=n%e+r%27,o=[],u=0;u<t.length;u+=2)if("|"!==t[u]){var a=+("0x"+t[u]+t[u+1])-i;o.push(a)}else{var l=+("0x"+t.substring(u+1,u+1+4))-i;u+=3,o.push(l)}return String.fromCharCode.apply(String,o)}(u=(u=atob(u)).replace(/[\x41-\x5A]/g,""),i,e),u=JSON.parse(u)}}Number.isInteger||(Number.isInteger=function(t){return"number"==typeof t&&isFinite(t)&&Math.floor(t)===t}),Number.EPSILON||(Number.EPSILON=2220446049250313e-31);var at=function(){function t(n,r){var i=arguments.length>2&&void 0!==arguments[2]?arguments[2]:{};e(this,t),this._id=0,this._running=!1,this._rollingBack=!1,this._animations=n,this.duration=r.duration,this.alternate=r.alternate,this.fill=r.fill,this.iterations=r.iterations,this.direction=i.direction||1,this.speed=i.speed||1,this.fps=i.fps||100,this.offset=i.offset||0,this.rollbackStartOffset=0}return o(t,[{key:"_rollback",value:function(){var t=this,n=1/0,r=null;this.rollbackStartOffset=this.offset,this._rollingBack||(this._rollingBack=!0,this._running=!0);this._id=window.requestAnimationFrame((function e(i){if(t._rollingBack){null==r&&(r=i);var o=i-r,u=t.rollbackStartOffset-o,a=Math.round(u*t.speed);if(a>t.duration&&n!=1/0){var l=!!t.alternate&&a/t.duration%2>1,f=a%t.duration;a=(f+=l?t.duration:0)||t.duration}var s=t.fps?1e3/t.fps:0,c=Math.max(0,a);if(c<n-s){t.offset=c,n=c;for(var h=t._animations,v=h.length,y=0;y<v;y++)h[y](c,t.direction)}var g=!1;if(t.iterations>0&&-1===t.fill){var d=t.iterations*t.duration,p=d==a;a=p?0:a,t.offset=p?0:t.offset,g=a>d}a>0&&t.offset>=a&&!g?t._id=window.requestAnimationFrame(e):t.stop()}}))}},{key:"_start",value:function(){var t=this,n=arguments.length>0&&void 0!==arguments[0]?arguments[0]:0,r=-1/0,e=null,i={},o=function o(u){t._running=!0,null==e&&(e=u);var a=Math.round((u-e+n)*t.speed),l=t.fps?1e3/t.fps:0;if(a>r+l&&!t._rollingBack){t.offset=a,r=a;for(var f=t._animations,s=f.length,c=0,h=0;h<s;h++)i[h]?c++:(i[h]=f[h](a,t.direction),i[h]&&c++);if(c===s)return void t._stop()}t._id=window.requestAnimationFrame(o)};this._id=window.requestAnimationFrame(o)}},{key:"_stop",value:function(){this._id&&window.cancelAnimationFrame(this._id),this._running=!1,this._rollingBack=!1}},{key:"play",value:function(){!this._rollingBack&&this._running||(this._rollingBack=!1,this.rollbackStartOffset>this.duration&&(this.offset=this.rollbackStartOffset-(this.rollbackStartOffset-this.offset)%this.duration,this.rollbackStartOffset=0),this._start(this.offset))}},{key:"stop",value:function(){this._stop(),this.offset=0,this.rollbackStartOffset=0;var t=this.direction,n=this._animations;window.requestAnimationFrame((function(){for(var r=0;r<n.length;r++)n[r](0,t)}))}},{key:"reachedToEnd",value:function(){return this.iterations>0&&this.offset>=this.iterations*this.duration}},{key:"restart",value:function(){this._stop(),this.offset=0,this._start()}},{key:"pause",value:function(){this._stop()}},{key:"reverse",value:function(){this.direction=-this.direction}}],[{key:"build",value:function(r,e){return delete r.animationSettings,r.options=ut(r.options,r.root,"5c7f360c"),r.animations.map((function(t){var e=ut(t.s,r.root,"5c7f360c");for(var i in delete t.s,r.animationSettings||(r.animationSettings=n({},e)),e)e.hasOwnProperty(i)&&(t[i]=e[i])})),(r=function(t,n){if(Y=n,!t||!t.root||!Array.isArray(t.animations))return null;for(var r=document.getElementsByTagName("svg"),e=!1,i=0;i<r.length;i++)if(r[i].id===t.root&&!r[i].svgatorAnimation){(e=r[i]).svgatorAnimation=!0;break}if(!e)return null;var o=t.animations.map((function(t){return rt(e,t)})).filter((function(t){return!!t}));return o.length?{element:e,animations:o,animationSettings:t.animationSettings,options:t.options||void 0}:null}(r,e))?{el:r.element,options:r.options||{},player:new t(r.animations,r.animationSettings,r.options)}:null}},{key:"push",value:function(t){return this.build(t)}},{key:"init",value:function(){var t=this,n=window.__SVGATOR_PLAYER__&&window.__SVGATOR_PLAYER__["5c7f360c"];Array.isArray(n)&&n.splice(0).forEach((function(n){return t.build(n)}))}}]),t}();function lt(t){return d(t)+""}function ft(t){var n=arguments.length>1&&void 0!==arguments[1]?arguments[1]:" ";return t&&t.length?t.map(lt).join(n):""}function st(t){if(!t)return"transparent";if(null==t.a||t.a>=1){var n=function(t){return 1===(t=parseInt(t).toString(16)).length?"0"+t:t},r=function(t){return t.charAt(0)===t.charAt(1)},e=n(t.r),i=n(t.g),o=n(t.b);return r(e)&&r(i)&&r(o)&&(e=e.charAt(0),i=i.charAt(0),o=o.charAt(0)),"#"+e+i+o}return"rgba("+t.r+","+t.g+","+t.b+","+t.a+")"}function ct(t){return t?"url(#"+t+")":"none"}!function(){for(var t=0,n=["ms","moz","webkit","o"],r=0;r<n.length&&!window.requestAnimationFrame;++r)window.requestAnimationFrame=window[n[r]+"RequestAnimationFrame"],window.cancelAnimationFrame=window[n[r]+"CancelAnimationFrame"]||window[n[r]+"CancelRequestAnimationFrame"];window.requestAnimationFrame||(window.requestAnimationFrame=function(n){var r=Date.now(),e=Math.max(0,16-(r-t)),i=window.setTimeout((function(){n(r+e)}),e);return t=r+e,i},window.cancelAnimationFrame=window.clearTimeout)}();var ht={f:null,i:function(t,n,r){return 0===t?n:1===t?r:{x:q(t,n.x,r.x),y:q(t,n.y,r.y)}},u:function(t,n){return function(r){var e=n(r);t.setAttribute("rx",lt(e.x)),t.setAttribute("ry",lt(e.y))}}},vt={f:null,i:function(t,n,r){return 0===t?n:1===t?r:{width:q(t,n.width,r.width),height:q(t,n.height,r.height)}},u:function(t,n){return function(r){var e=n(r);t.setAttribute("width",lt(e.width)),t.setAttribute("height",lt(e.height))}}};Object.freeze({M:2,L:2,Z:0,H:1,V:1,C:6,Q:4,T:2,S:4,A:7});var yt={},gt=null;function dt(t){var n=function(){if(gt)return gt;if("object"!==("undefined"==typeof document?"undefined":r(document))||!document.createElementNS)return{};var t=document.createElementNS("http://www.w3.org/2000/svg","svg");return t&&t.style?(t.style.position="absolute",t.style.opacity="0.01",t.style.zIndex="-9999",t.style.left="-9999px",t.style.width="1px",t.style.height="1px",gt={svg:t}):{}}().svg;if(!n)return function(t){return null};var e=document.createElementNS(n.namespaceURI,"path");e.setAttributeNS(null,"d",t),e.setAttributeNS(null,"fill","none"),e.setAttributeNS(null,"stroke","none"),n.appendChild(e);var i=e.getTotalLength();return function(t){var n=e.getPointAtLength(i*t);return{x:n.x,y:n.y}}}function pt(t){return yt[t]?yt[t]:yt[t]=dt(t)}function mt(t,n,r,e){if(!t||!e)return!1;var i=["M",t.x,t.y];if(n&&r&&(i.push("C"),i.push(n.x),i.push(n.y),i.push(r.x),i.push(r.y)),n?!r:r){var o=n||r;i.push("Q"),i.push(o.x),i.push(o.y)}return n||r||i.push("L"),i.push(e.x),i.push(e.y),i.join(" ")}function bt(t,n,r,e){var i=arguments.length>4&&void 0!==arguments[4]?arguments[4]:1,o=mt(t,n,r,e),u=pt(o);try{return u(i)}catch(t){return null}}function wt(t,n,r){return t+(n-t)*r}function At(t,n,r){var e=arguments.length>3&&void 0!==arguments[3]&&arguments[3],i={x:wt(t.x,n.x,r),y:wt(t.y,n.y,r)};return e&&(i.a=xt(t,n)),i}function xt(t,n){return Math.atan2(n.y-t.y,n.x-t.x)}function kt(t,n,r,e){var i=1-e;return i*i*t+2*i*e*n+e*e*r}function St(t,n,r,e){return 2*(1-e)*(n-t)+2*e*(r-n)}function _t(t,n,r,e){var i=arguments.length>4&&void 0!==arguments[4]&&arguments[4],o=bt(t,n,null,r,e);return o||(o={x:kt(t.x,n.x,r.x,e),y:kt(t.y,n.y,r.y,e)}),i&&(o.a=Ot(t,n,r,e)),o}function Ot(t,n,r,e){return Math.atan2(St(t.y,n.y,r.y,e),St(t.x,n.x,r.x,e))}function jt(t,n,r,e,i){var o=i*i;return i*o*(e-t+3*(n-r))+3*o*(t+r-2*n)+3*i*(n-t)+t}function Mt(t,n,r,e,i){var o=1-i;return 3*(o*o*(n-t)+2*o*i*(r-n)+i*i*(e-r))}function Pt(t,n,r,e,i){var o=arguments.length>5&&void 0!==arguments[5]&&arguments[5],u=bt(t,n,r,e,i);return u||(u={x:jt(t.x,n.x,r.x,e.x,i),y:jt(t.y,n.y,r.y,e.y,i)}),o&&(u.a=Et(t,n,r,e,i)),u}function Et(t,n,r,e,i){return Math.atan2(Mt(t.y,n.y,r.y,e.y,i),Mt(t.x,n.x,r.x,e.x,i))}function It(t,n,r){var e=arguments.length>3&&void 0!==arguments[3]&&arguments[3];if(Ft(n)){if(Nt(r))return _t(n,r.start,r,t,e)}else if(Ft(r)){if(n.end)return _t(n,n.end,r,t,e)}else{if(n.end)return r.start?Pt(n,n.end,r.start,r,t,e):_t(n,n.end,r,t,e);if(r.start)return _t(n,r.start,r,t,e)}return At(n,r,t,e)}function Rt(t,n,r){var e=It(t,n,r,!0);return e.a=function(t){return arguments.length>1&&void 0!==arguments[1]&&arguments[1]?t+Math.PI:t}(e.a)/m,e}function Ft(t){return!t.type||"corner"===t.type}function Nt(t){return null!=t.start&&!Ft(t)}var Tt=new N;var Bt={f:lt,i:B},qt={f:lt,i:L};function Lt(t,n,r){return t.map((function(t){return function(t,n,r){var e=t.v;if(!e||"g"!==e.t||e.s||!e.v||!e.r)return t;var i=r.getElementById(e.r),o=i&&i.querySelectorAll("stop")||[];return e.s=e.v.map((function(t,n){var r=o[n]&&o[n].getAttribute("offset");return{c:t,o:r=d(parseInt(r)/100)}})),delete e.v,t}(t,0,r)}))}var Ct={gt:"gradientTransform",c:{x:"cx",y:"cy"},rd:"r",f:{x:"x1",y:"y1"},to:{x:"x2",y:"y2"}};function Dt(t,n,e,i,o,u,a,l){return Lt(t,0,l),n=function(t,n,r){for(var e,i,o,u=t.length-1,a={},l=0;l<=u;l++)(e=t[l]).e&&(e.e=n(e.e)),e.v&&"g"===(i=e.v).t&&i.r&&(o=r.getElementById(i.r))&&(a[i.r]={e:o,s:o.querySelectorAll("stop")});return a}(t,i,l),function(i){var o=e(i,t,zt);if(!o)return"none";if("c"===o.t)return st(o.v);if("g"===o.t){if(!n[o.r])return ct(o.r);var u=n[o.r];return function(t,n){for(var r=t.s,e=r.length;e<n.length;e++){var i=r[r.length-1].cloneNode();i.id=Yt(i.id),t.e.appendChild(i),r=t.s=t.e.querySelectorAll("stop")}for(var o=0,u=r.length,a=n.length-1;o<u;o++)r[o].setAttribute("stop-color",st(n[Math.min(o,a)].c)),r[o].setAttribute("offset",n[Math.min(o,a)].o)}(u,o.s),Object.keys(Ct).forEach((function(t){if(void 0!==o[t])if("object"!==r(Ct[t])){var n,e="gt"===t?(n=o[t],Array.isArray(n)?"matrix("+n.join(" ")+")":""):o[t],i=Ct[t];u.e.setAttribute(i,e)}else Object.keys(Ct[t]).forEach((function(n){if(void 0!==o[t][n]){var r=o[t][n],e=Ct[t][n];u.e.setAttribute(e,r)}}))})),ct(o.r)}return"none"}}function zt(t,r,e){if(0===t)return r;if(1===t)return e;if(r&&e){var i=r.t;if(i===e.t)switch(r.t){case"c":return{t:i,v:z(t,r.v,e.v)};case"g":if(r.r===e.r){var o={t:i,s:Vt(t,r.s,e.s),r:r.r};return r.gt&&e.gt&&(o.gt=function(t,n,r){var e=n.length;if(e!==r.length)return T(t,n,r);for(var i=new Array(e),o=0;o<e;o++)i[o]=B(t,n[o],r[o]);return i}(t,r.gt,e.gt)),r.c?(o.c=C(t,r.c,e.c),o.rd=q(t,r.rd,e.rd)):r.f&&(o.f=C(t,r.f,e.f),o.to=C(t,r.to,e.to)),o}}if("c"===r.t&&"g"===e.t||"c"===e.t&&"g"===r.t){var u="c"===r.t?r:e,a="g"===r.t?n({},r):n({},e),l=a.s.map((function(t){return{c:u.v,o:t.o}}));return a.s="c"===r.t?Vt(t,l,a.s):Vt(t,a.s,l),a}}return T(t,r,e)}function Vt(t,n,r){if(n.length===r.length)return n.map((function(n,e){return Gt(t,n,r[e])}));for(var e=Math.max(n.length,r.length),i=[],o=0;o<e;o++){var u=Gt(t,n[Math.min(o,n.length-1)],r[Math.min(o,r.length-1)]);i.push(u)}return i}function Gt(t,n,r){return{o:L(t,n.o,r.o||0),c:z(t,n.c,r.c||{})}}function Yt(t){return t.replace(/-fill-([0-9]+)$/,(function(t,n){return"-fill-"+(+n+1)}))}var $t={fill:Dt,"fill-opacity":qt,stroke:Dt,"stroke-opacity":qt,"stroke-width":Bt,"stroke-dashoffset":{f:lt,i:B},"stroke-dasharray":{f:function(t){var n=arguments.length>1&&void 0!==arguments[1]?arguments[1]:" ";return t&&t.length>0&&(t=t.map((function(t){return d(t,4)}))),ft(t,n)},i:function(t,n,r){var e,i,o,u=n.length,a=r.length;if(u!==a)if(0===u)n=V(u=a,0);else if(0===a)a=u,r=V(u,0);else{var l=(o=(e=u)*(i=a)/function(t,n){for(var r;n;)r=n,n=t%n,t=r;return t||1}(e,i))<0?-o:o;n=G(n,Math.floor(l/u)),r=G(r,Math.floor(l/a)),u=a=l}for(var f=[],s=0;s<u;s++)f.push(d(q(t,n[s],r[s])));return f}},opacity:qt,transform:function(t,n,e,i){if(!(t=function(t,n){if(!t||"object"!==r(t))return null;var e=!1;for(var i in t)t.hasOwnProperty(i)&&(t[i]&&t[i].length?(t[i].forEach((function(t){t.e&&(t.e=n(t.e))})),e=!0):delete t[i]);return e?t:null}(t,i)))return null;var o=function(r,i,o){var u=arguments.length>3&&void 0!==arguments[3]?arguments[3]:null;return t[r]?e(i,t[r],o):n&&n[r]?n[r]:u};return n&&n.a&&t.o?function(n){var r=e(n,t.o,Rt);return Tt.recomposeSelf(r,o("r",n,B,0)+r.a,o("k",n,C),o("s",n,C),o("t",n,C)).toString()}:function(t){return Tt.recomposeSelf(o("o",t,It,null),o("r",t,B,0),o("k",t,C),o("s",t,C),o("t",t,C)).toString()}},r:Bt,"#size":vt,"#radius":ht,_:function(t,n){if(Array.isArray(t))for(var r=0;r<t.length;r++)this[t[r]]=n;else this[t]=n}},Ut=function(t){!function(t,n){if("function"!=typeof n&&null!==n)throw new TypeError("Super expression must either be null or a function");t.prototype=Object.create(n&&n.prototype,{constructor:{value:t,writable:!0,configurable:!0}}),n&&l(t,n)}(u,t);var n,r,i=(n=u,r=f(),function(){var t,e=a(n);if(r){var i=a(this).constructor;t=Reflect.construct(e,arguments,i)}else t=e.apply(this,arguments);return c(this,t)});function u(){return e(this,u),i.apply(this,arguments)}return o(u,null,[{key:"build",value:function(t){var n=h(a(u),"build",this).call(this,t,$t);if(!n)return null;n.el,n.options,function(t,n,r){t.play()}(n.player)}}]),u}(at);return Ut.init(),Ut}));
(function(s,i,o,w){w[o]=w[o]||{};w[o][s]=w[o][s]||[];w[o][s].push(i);})('5c7f360c',{"root":"eAhfo21it9Z1","animations":[{"elements":{"eAhfo21it9Z9":{"transform":{"data":{"o":{"x":221.192291,"y":198.751529,"type":"corner"},"t":{"x":-221.192291,"y":-198.751529}},"keys":{"r":[{"t":0,"v":0},{"t":1700,"v":-15},{"t":3000,"v":0}]}}},"eAhfo21it9Z11":{"transform":{"data":{"o":{"x":-196.9,"y":-42.36,"type":"corner"}},"keys":{"r":[{"t":100,"v":0},{"t":3000,"v":0}]}}}},"s":"MMDA1M2MxTzY4YWFiYmAI4YTdiYWFmYjViNDYV4ODA3OTc2NzY3NjcyJNjhhYWFmUWI4YWJhOLWJhYWZOU2I1YjQ2ODMgwNzc3Mkc2OFRhZmJAhYWJiOGE3YmFhZmI1WYjRiOTY4WTgwNzZXNQzI2OGFjYWZiMmIyNjSg4MDc3NzJRNjhhN2IAyYmFhYmI4YjRhN2JhAYWI2ODgwYWNhN2IyYMjlhYjcyNjhiOVFiNmAFiYWJhYTY4ODA3N2MEz"},"options":"MEDAxMDg4MmY4MDgxNmKU3ZjgxMmY0N0oyZjcR5N2M2ZTcxSzJmOGE/H"},'__SVGATOR_PLAYER__',window)></script></svg>