


<svg id="egQeXZpU4MT1" xmlns="http://www.w3.org/2000/svg" xmlns:xlink="http://www.w3.org/1999/xlink" viewBox="-90 -150 1700 1200" shape-rendering="geometricPrecision" text-rendering="geometricPrecision"><style><![CDATA[#egQeXZpU4MT9_tr {animation: egQeXZpU4MT9_tr__tr 3000ms linear infinite normal forwards}@keyframes egQeXZpU4MT9_tr__tr { 0% {transform: translate(221.192291px,198.751529px) rotate(0deg)} 56.666667% {transform: translate(221.192291px,198.751529px) rotate(-15deg)} 100% {transform: translate(221.192291px,198.751529px) rotate(0deg)}} #egQeXZpU4MT11_tr {animation: egQeXZpU4MT11_tr__tr 3000ms linear infinite normal forwards}@keyframes egQeXZpU4MT11_tr__tr { 0% {transform: translate(-196.9px,-42.36px) rotate(0deg)} 3.333333% {transform: translate(-196.9px,-42.36px) rotate(0deg)} 100% {transform: translate(-196.9px,-42.36px) rotate(0deg)}}]]></style><path d="M348.6,276.82c17,150.7-51.07,282.32-56.43,459.48-.26,8.58-.58,27.49,11.64,42.1c23.33,27.91,85.82,32.31,119.13,4.48c40.24-33.62,7.9-88.18,52.84-152.27c26.72-38.1,71.93-67,88.68-56.43c29.48,18.58-44.36,149.88,6.27,207.8c15.06,17.24,35.82,25.08,35.82,25.08s30.24,11.42,66.28,0c67.8-21.47,50.77-497,48.37-558.9.45-12.75-.63-37.67-17-51.06-28.1-22.95-90.95-3.58-113.75,33.14-34.67,55.83,42.6,120.62,9.85,187.2-21.82,44.37-84.44,73.13-111.06,56.43C437.56,441.45,538.8,262.49,465,196.21c-29.68-26.67-83.24-30.9-106.58-9.86-21.71,19.65-13.51,57.8-9.82,90.47Z" transform="translate(-196.9-42.36)" fill="none" stroke="#fff" stroke-width="11" stroke-miterlimit="10"/><path d="M763.13,561.65c-36,50-49.38,135.57,5.38,191.67c52.84,54.15,143.6,54.63,180.92,17c63.53-64-9.75-256.5-93.15-266-47.91-5.46-88.37,50.68-93.15,57.33Z" transform="translate(-196.9-42.36)" fill="none" stroke="#fff" stroke-width="11" stroke-miterlimit="10"/><path d="M968.24,457.75c-40.88,66.41,43.13,140.23,62.7,295.57c1.56,12.35,3.6,32.31,14.33,35.83c30.23,9.92,84.71-125.32,120-116.44c27.67,7,15,95.18,33.14,98.52c28.61,5.27,127.37-201.42,60.91-270.49-17.81-18.51-49.7-29.44-64.49-18.81-27.19,19.55,7.14,109.28-3.58,112.86-8.18,2.72-25-50.46-45.68-49.27-25.08,1.45-37.31,82.1-46.58,80.61-8.66-1.39,11.08-70.34-21.49-129.87-18.13-33.12-54.65-68.09-83.3-60.91-2.82.72-14.71,4.13-25.96,22.4Z" transform="translate(-196.9-42.36)" fill="none" stroke="#fff" stroke-width="11" stroke-miterlimit="10"/><path d="M1290.69,637.78c-5.11,45.36,20.31,98.59,68.07,111.06c47.39,12.38,86.36-22.14,89.57-25.08c10.48,5.26,35.9,16.45,52,5.38c10.36-7.15,12.55-20.65,13.43-26.87c20.53-144.73-40.3-407.54-40.3-407.54-3.57-15.42-11.09-48-25.08-49.26-14.8-1.36-29.11,33-34,44.78-32,76.76.64,190.75,32.25,271.4-6.32-3.87-40.94-24.23-82.41-12.54s-69.14,49.66-73.53,88.67Z" transform="translate(-196.9-42.36)" fill="none" stroke="#fff" stroke-width="11" stroke-miterlimit="10"/><path d="M1539.69,574.18c7.84,80.14,13.87,148.26,56.43,167.5c47.17,21.32,98.15-28.2,114.64-9.86c15,16.71-5.77,81.63-53.74,114.65-78.13,53.79-228.5,23.22-318.86-18.81-20.06-9.33-56.34-28.1-69.86-15.22-13,12.35.41,48.63,9.85,65.38c55.11,97.87,314.45,131.44,421,13.44c39.06-43.28,50.56-99.17,66.28-175.56c11.27-54.8,8.41-85.49,2.69-146.89-2.78-29.78-7.14-53.55-26-66.28-13.8-9.33-37.39-14.09-49.26-3.58-24.55,21.75,30,88.72,1.79,126.29-13.16,17.53-41.63,25.25-55.53,16.12-20-13.15,3.74-52.35-18.81-93.15-17.22-31.15-55.59-52.65-72.55-43-5.04,2.87-13.69,11.6-8.07,68.97Z" transform="translate(-196.9-42.36)" fill="none" stroke="#fff" stroke-width="11" stroke-miterlimit="10"/><path d="M807.35,598.71c-15,20.87-20.64,56.65,2.24,80.09c22.09,22.63,60,22.83,75.61,7.11c26.54-26.74-4.08-107.18-38.93-111.16-20.02-2.28-36.92,21.18-38.92,23.96Z" transform="translate(-196.9-42.36)" fill="none" stroke="#fff" stroke-width="11" stroke-miterlimit="10"/><path d="M1386.53,590.31c-20.61-2.26-38.54,15.06-45.68,31.35-10.06,22.9-4.13,55.93,17.91,66.28c23.84,11.18,58.55-7.93,65.38-36.73c6.35-26.73-12.14-58.12-37.61-60.9Z" transform="translate(-196.9-42.36)" fill="none" stroke="#fff" stroke-width="11" stroke-miterlimit="10"/><g id="egQeXZpU4MT9_tr" transform="translate(221.192291,198.751529) rotate(0)"><g transform="translate(-221.192291,-198.751529)"><path d="" transform="translate(-196.9-42.36)" fill="none" stroke="#000" stroke-width="4" stroke-miterlimit="10"/><g id="egQeXZpU4MT11_tr" transform="translate(-196.9,-42.36) rotate(0)"><path d="M253.12,278.56l-1.7,4.23c-6.75,16.81-13.4,33.65-20.24,50.42-.24.59-.78,1.9-1.32,3.4l-1.16,3.23v0l-2.33,6.55v0c-1.17,3.31-2,5.71-2.1,6-4.77,13.63-17.38,32.17-17.46,48.07C206.75,412.32,213.66,427,225,432c20.71,9.16,47.82-17.91,52.07-22.15c6.97529-6.968745,12.798002-15.002399,17.25-23.8c23-44.06,109.17-62.51,183.54-92.06c37.876135-15.102215,74.296818-33.625518,108.81-55.34c7.83-3.15,27.34-12.29,38.64-33.25c14.41-26.74,5.55-54.31.77-69.19-10.89-33.88-34.34-52.76-42.69-59.3-5-3.94-32.44-24.81-73.8-28.13C454.46,44.39,414.84,74.36,405,82.26c-8.302535-7.417292-18.314555-12.660375-29.14-15.26-18.53-4.22-33.43,1.46-55.75,10.34-16,6.35-37.81,15.27-59.19,35.8-12.94,12.43-20,23.67-32.13,42.8-9.720197,15.39123-18.338413,31.451387-25.79,48.06.620306,9.115965,2.644138,18.081542,6,26.58c11.45,28.65,35,43.04,44.12,47.98Z" transform="translate(0,0)" fill="#f6a7ab" stroke="#000" stroke-width="12" stroke-miterlimit="10"/></g><path d="M224.27,352.38c56.38-96.15,115.26-110.16,136.06-113.17c11.7-1.69,26.23-3.76,54.68-.15c8.5,1.07,90.5,11.09,135.31-1.3c8.4-2.33,20.73-6.2,31.93-16.67c8.657877-8.272539,15.03947-18.635309,18.53-30.09" transform="translate(-196.872976-42.36)" fill="#f6a7ab"/><path d="M229.45,355.41c5.85-10,12.1-19.71,18.83-29.1c5.684538-7.988231,11.793307-15.665918,18.3-23c5.727431-6.500726,11.795973-12.692774,18.18-18.55q4.38-4,9-7.77c.69-.56,1.38-1.12,2.08-1.67l1-.81.51-.41c.66-.52-.85.65-.18.15c1.4-1.06,2.8-2.13,4.23-3.16c9.640696-7.024286,20.014666-12.982445,30.94-17.77c1-.46-.69.28-.34.14l.81-.34l1.74-.7c1.08-.43,2.17-.84,3.26-1.24q3-1.11,6.12-2.07c3.51-1.08,7.06-2,10.66-2.78c2.94-.62,5.9-1.1,8.88-1.52l1.9-.27c.93-.13.42,0-.29,0l1.16-.16c1.46-.18,2.92-.36,4.39-.51c3.35-.35,6.72-.58,10.09-.71c13.68-.5,27.17,1.13,40.73,2.65q18.12,2,36.34,3.08c16.888126,1.081573,33.821287,1.278509,50.73.59c16.14-.75,32.5-2.45,48-7.29c9.781558-2.931856,18.9028-7.730186,26.86-14.13c8.106905-6.763109,14.598671-15.253655,19-24.85c1.6135-3.457167,3.003033-7.014506,4.16-10.65.423257-1.534284.219567-3.173873-.566244-4.557952s-2.089351-2.399228-3.623756-2.822048c-3.186156-.812695-6.445058,1.037548-7.38,4.19q-.72,2.3-1.58,4.55l-.48,1.22c-.08.21-.17.41-.26.62c0,0,.45-1,.16-.37-.45,1-.86,1.93-1.32,2.89q-1.47,3-3.21,5.88c-.6,1-1.23,2-1.88,2.93-.34.5-.68,1-1,1.48-.16.21-1.15,1.54-.73,1-6.330335,8.16717-14.677233,14.54624-24.22,18.51c1-.43-.51.2-.81.32l-1.46.56q-1.51.57-3.06,1.08c-1.78.6-3.59,1.13-5.4,1.64q-5.24,1.49-10.6,2.51-2.85.54-5.71,1l-2.83.41c-1.19.18.9-.11-.31.05l-1.68.21c-4.12.5-8.26.88-12.4,1.18-16.980444,1.08174-34.009767,1.165218-51,.25q-19.92-.93-39.77-3c-12.33-1.3-24.59-3-37-3.17-11.353187-.081826-22.688163.922751-33.85,3-7.406039,1.373436-14.669994,3.42542-21.7,6.13-10.833863,4.157558-21.184475,9.478718-30.87,15.87-12.909937,8.604848-24.849604,18.583071-35.61,29.76-14.22367,14.88024-26.951434,31.121537-38,48.49-3.18,4.92-6.25,9.93-9.22,15-1.673423,2.860835-.710835,6.536577,2.15,8.21s6.536577.710835,8.21-2.15Z" transform="translate(-196.9-39.36)"/><path d="M404.54,83l60,65.27c5.431817,5.68188,10.508116,11.693287,15.2,18" transform="translate(-196.9-42.36)" fill="#f6a7ab"/><path d="M401.36,86.2L461,151.11c2.66,2.9,5.33,5.79,7.91,8.77q1.86,2.13,3.64,4.32l.88,1.11c0,0,.84,1.08.45.57.67.88,1.32,1.76,2,2.66c1.37,1.9,4,3,6.16,1.61c1.89-1.22,3.08-4.11,1.61-6.16-4.332115-5.870531-9.006909-11.480283-14-16.8q-7.42-8.12-14.88-16.2l-30.2-32.82-16.85-18.33c-1.763639-1.738372-4.596361-1.738372-6.36,0-1.711922,1.774401-1.711922,4.585599,0,6.36Z" transform="translate(-196.9-42.36)"/><path d="M479.77,166.12c11.29-5.59,14.06-6.6,14.22-6.31s-3,2.24-7.33,5.43c0,0-4.91,3.6-12.61,10.42-11.58,10.23-21.32,28.08-39.77,47.17-8.29,8.58-15.07,13.83-24.38,15.32-4.468719.694492-9.031087.490511-13.42-.6" transform="translate(-196.9-42.36)" fill="#f6a7ab"/><path d="M482,170c3.56-1.76,7.12-3.53,10.75-5.13l.7-.31c.59-.25-1.19.48-.27.12.31-.12.62-.25.94-.36.219081-.042058.433459-.105702.64-.19.33-.21-1.13.13-1,.13-1.944192-.043882-3.630148-1.356084-4.15-3.23v-2.39c0-.15.62-1.66,1-1.77-.085835.059246-.163211.129894-.23.21-.47.57,1-.69.16-.13l-2.18,1.54c-1.4,1-2.8,1.94-4.16,3-2.16,1.6-4.27,3.29-6.34,5-3.426398,2.72329-6.713872,5.616934-9.85,8.67-2.614742,2.686373-5.088079,5.506845-7.41,8.45-2.82,3.51-5.54,7.11-8.27,10.69l-1.9,2.49-1,1.26c-.16.22-.33.43-.49.64.55-.71-.18.23-.29.38-1.51,1.94-3,3.87-4.58,5.79-6.54,8.06-13.45,16.1-21.5,22.69-1,.79.45-.32-.16.13-.26.18-.51.38-.76.56-.51.37-1,.72-1.54,1.06-1.0026.672214-2.040779,1.289781-3.11,1.85-.52.27-1,.54-1.59.78l-.65.29c.55-.24.39-.17-.07,0-1.108108.422638-2.240052.779918-3.39,1.07q-.79.21-1.59.36l-.91.16c-.23,0-1,.14-.44.07-1.503538.171599-3.017189.238427-4.53.2-.68,0-1.37-.06-2.05-.12l-.78-.07c-1-.09.77.14-.27,0s-2.1-.37-3.14-.62c-1.550533-.426932-3.21105.005765-4.35605,1.1351s-1.600532,2.783733-1.195,4.34s1.610517,2.777968,3.16105,3.2049c6.241834,1.550508,12.771444,1.523015,19-.08c5.645533-1.694564,10.867207-4.567848,15.32-8.43c5.213755-4.437893,10.056507-9.294022,14.48-14.52c4.37-5,8.51-10.16,12.55-15.4c1.76-2.27,3.49-4.56,5.23-6.84.82-1.07,1.64-2.15,2.47-3.22l.61-.79l1.52-1.93c2.86871-3.71645,5.989393-7.231395,9.34-10.52c3.77-3.59,7.85-6.92,11.95-10.13.32-.25,1.47-1.09.07-.06l.57-.43.62-.47c2.07-1.53,4.23-2.94,6.31-4.46c1.044762-.640669,1.941273-1.496274,2.63-2.51.698653-1.231035.795809-2.714027.263738-4.025691s-1.634911-2.307883-2.993738-2.704309c-1.265212-.259919-2.579461-.130934-3.77.37-4.76,1.79-9.32,4.19-13.87,6.44-2.136075,1.263016-2.858377,4.009547-1.62,6.16c1.297778,2.065265,3.977488,2.765843,6.12,1.6Z" transform="translate(-196.872976-42.36)"/><path d="M250.31,276.78q8.81,5.78,18,10.88" transform="translate(-196.9-42.36)" fill="#f6a7ab"/><path d="M247.28,282q8.82,5.78,18,10.88c2.74,1.52,6.67.75,8.21-2.15c1.616515-2.868423.664951-6.50207-2.15-8.21q-9.21-5.12-18-10.88c-2.864699-1.64488-6.519219-.68785-8.21,2.15-1.594397,2.871247-.647056,6.488768,2.15,8.21Z" transform="translate(-196.9-42.36)"/><path d="" transform="translate(-196.9-42.36)" fill="#f6a7ab" stroke="#000" stroke-width="10" stroke-miterlimit="10"/><path d="M475.91,161.52l-4.81,3.64c0,0-5,3.46-12.9,10.05-11.87,9.9-22.11,27.46-41.1,46-8.05,7.87-15.41,12.47-24.81,14.62-4.674483,1.060196-9.486797,1.377417-14.26.94" transform="translate(-196.9-42.36)" fill="#f6a7ab"/><path d="M473.64,157.63c-5.14,3.9-10.36,7.67-15.38,11.73-3.031329,2.394852-5.910257,4.976536-8.62,7.73-2.58,2.69-5,5.53-7.38,8.41-5.68,6.86-11.14,13.89-17,20.58-3.4,3.87-6.93,7.64-10.6,11.27-1.79,1.76-3.62,3.48-5.54,5.08-.42.36-.85.7-1.28,1-.12.1-.68.52-.05,0-.21.16-.42.33-.64.48-.89.66-1.8,1.29-2.73,1.9-2.019658,1.267399-4.117144,2.40632-6.28,3.41-.61.29.67-.27,0,0l-.86.35c-.59.22-1.18.44-1.77.64-1.08.36-2.18.68-3.29,1-1.39.35-2.8.64-4.22.86-.1,0-1.05.14-.53.08l-.74.08c-.7.07-1.4.12-2.11.16-2.200398.106672-4.405509.063238-6.6-.13-2.478473.01636-4.48364,2.021527-4.5,4.5.05805,2.460835,2.039165,4.44195,4.5,4.5c9.379.788326,18.789353-1.097906,27.14-5.44c8.83-4.59,16-12,22.63-19.19c6.34-6.88,12.18-14.17,18.07-21.43c4.67-5.76,9.4-11.63,15.06-16.46c2-1.75,4.14-3.43,6.25-5.09l1.28-1c.51-.4-.61.47-.12.09l.63-.48c.66-.5,1.33-1,2-1.51c2.41-1.78,4.81-3.56,7.2-5.38c1.87-1.41,3-3.94,1.61-6.15-1.19-1.85-4.15-3.14-6.15-1.62Z" transform="translate(-196.9-40.516539)"/></g></g></svg>