<svg id="Layer_1" data-name="Layer 1" xmlns="http://www.w3.org/2000/svg" viewBox="0 0 1581.71 929.57"><defs><style>.cls-1,.cls-2{fill:none;}.cls-1{stroke:#fff;stroke-width:11px;}.cls-1,.cls-2,.cls-3,.cls-5{stroke-miterlimit:10;}.cls-2,.cls-3,.cls-5{stroke:#000;}.cls-2{stroke-width:4px;}.cls-3,.cls-4,.cls-5{fill:#f6a7ab;}.cls-3{stroke-width:12px;}.cls-5{stroke-width:10px;}</style></defs><path class="cls-1" d="M348.6,276.82c17,150.7-51.07,282.32-56.43,459.48-.26,8.58-.58,27.49,11.64,42.1,23.33,27.91,85.82,32.31,119.13,4.48,40.24-33.62,7.9-88.18,52.84-152.27,26.72-38.1,71.93-67,88.68-56.43,29.48,18.58-44.36,149.88,6.27,207.8,15.06,17.24,35.82,25.08,35.82,25.08s30.24,11.42,66.28,0c67.8-21.47,50.77-497,48.37-558.9.45-12.75-.63-37.67-17-51.06-28.1-22.95-90.95-3.58-113.75,33.14-34.67,55.83,42.6,120.62,9.85,187.2-21.82,44.37-84.44,73.13-111.06,56.43C437.56,441.45,538.8,262.49,465,196.21c-29.68-26.67-83.24-30.9-106.58-9.86C336.71,206,344.91,244.15,348.6,276.82Z" transform="translate(-196.9 -42.36)"/><path class="cls-1" d="M763.13,561.65c-36,50-49.38,135.57,5.38,191.67,52.84,54.15,143.6,54.63,180.92,17,63.53-64-9.75-256.5-93.15-266C808.37,498.86,767.91,555,763.13,561.65Z" transform="translate(-196.9 -42.36)"/><path class="cls-1" d="M968.24,457.75c-40.88,66.41,43.13,140.23,62.7,295.57,1.56,12.35,3.6,32.31,14.33,35.83,30.23,9.92,84.71-125.32,120-116.44,27.67,7,15,95.18,33.14,98.52,28.61,5.27,127.37-201.42,60.91-270.49-17.81-18.51-49.7-29.44-64.49-18.81-27.19,19.55,7.14,109.28-3.58,112.86-8.18,2.72-25-50.46-45.68-49.27-25.08,1.45-37.31,82.1-46.58,80.61-8.66-1.39,11.08-70.34-21.49-129.87-18.13-33.12-54.65-68.09-83.3-60.91C991.38,436.07,979.49,439.48,968.24,457.75Z" transform="translate(-196.9 -42.36)"/><path class="cls-1" d="M1290.69,637.78c-5.11,45.36,20.31,98.59,68.07,111.06,47.39,12.38,86.36-22.14,89.57-25.08,10.48,5.26,35.9,16.45,52,5.38,10.36-7.15,12.55-20.65,13.43-26.87,20.53-144.73-40.3-407.54-40.3-407.54-3.57-15.42-11.09-48-25.08-49.26-14.8-1.36-29.11,33-34,44.78-32,76.76.64,190.75,32.25,271.4-6.32-3.87-40.94-24.23-82.41-12.54S1295.08,598.77,1290.69,637.78Z" transform="translate(-196.9 -42.36)"/><path class="cls-1" d="M1539.69,574.18c7.84,80.14,13.87,148.26,56.43,167.5,47.17,21.32,98.15-28.2,114.64-9.86,15,16.71-5.77,81.63-53.74,114.65-78.13,53.79-228.5,23.22-318.86-18.81-20.06-9.33-56.34-28.1-69.86-15.22-13,12.35.41,48.63,9.85,65.38,55.11,97.87,314.45,131.44,421,13.44,39.06-43.28,50.56-99.17,66.28-175.56,11.27-54.8,8.41-85.49,2.69-146.89-2.78-29.78-7.14-53.55-26-66.28-13.8-9.33-37.39-14.09-49.26-3.58-24.55,21.75,30,88.72,1.79,126.29-13.16,17.53-41.63,25.25-55.53,16.12-20-13.15,3.74-52.35-18.81-93.15-17.22-31.15-55.59-52.65-72.55-43C1542.72,508.08,1534.07,516.81,1539.69,574.18Z" transform="translate(-196.9 -42.36)"/><path class="cls-1" d="M807.35,598.71c-15,20.87-20.64,56.65,2.24,80.09,22.09,22.63,60,22.83,75.61,7.11,26.54-26.74-4.08-107.18-38.93-111.16C826.25,572.47,809.35,595.93,807.35,598.71Z" transform="translate(-196.9 -42.36)"/><path class="cls-1" d="M1386.53,590.31c-20.61-2.26-38.54,15.06-45.68,31.35-10.06,22.9-4.13,55.93,17.91,66.28,23.84,11.18,58.55-7.93,65.38-36.73C1430.49,624.48,1412,593.09,1386.53,590.31Z" transform="translate(-196.9 -42.36)"/><path class="cls-2" d="M1670-80" transform="translate(-196.9 -42.36)"/><path class="cls-3" d="M253.12,278.56l-1.7,4.23c-6.75,16.81-13.4,33.65-20.24,50.42-.24.59-.78,1.9-1.32,3.4l-1.16,3.23h0l-2.33,6.55h0c-1.17,3.31-2,5.71-2.1,6-4.77,13.63-17.38,32.17-17.46,48.07C206.75,412.32,213.66,427,225,432c20.71,9.16,47.82-17.91,52.07-22.15a93,93,0,0,0,17.25-23.8c23-44.06,109.17-62.51,183.54-92.06a671,671,0,0,0,108.81-55.34c7.83-3.15,27.34-12.29,38.64-33.25,14.41-26.74,5.55-54.31.77-69.19-10.89-33.88-34.34-52.76-42.69-59.3-5-3.94-32.44-24.81-73.8-28.13C454.46,44.39,414.84,74.36,405,82.26A67.34,67.34,0,0,0,375.86,67c-18.53-4.22-33.43,1.46-55.75,10.34-16,6.35-37.81,15.27-59.19,35.8-12.94,12.43-20,23.67-32.13,42.8A385.64,385.64,0,0,0,203,204a88.78,88.78,0,0,0,6,26.58C220.45,259.23,244,273.62,253.12,278.56Z" transform="translate(-196.9 -42.36)"/><path class="cls-4" d="M224.27,352.38c56.38-96.15,115.26-110.16,136.06-113.17,11.7-1.69,26.23-3.76,54.68-.15,8.5,1.07,90.5,11.09,135.31-1.3,8.4-2.33,20.73-6.2,31.93-16.67A69.73,69.73,0,0,0,600.78,191" transform="translate(-196.9 -42.36)"/><path d="M229.45,355.41c5.85-10,12.1-19.71,18.83-29.1a274.28,274.28,0,0,1,18.3-23,244.77,244.77,0,0,1,18.18-18.55q4.38-4,9-7.77c.69-.56,1.38-1.12,2.08-1.67l1-.81.51-.41c.66-.52-.85.65-.18.15,1.4-1.06,2.8-2.13,4.23-3.16a165,165,0,0,1,30.94-17.77c1-.46-.69.28-.34.14l.81-.34,1.74-.7c1.08-.43,2.17-.84,3.26-1.24q3-1.11,6.12-2.07c3.51-1.08,7.06-2,10.66-2.78,2.94-.62,5.9-1.1,8.88-1.52l1.9-.27c.93-.13.42,0-.29,0l1.16-.16c1.46-.18,2.92-.36,4.39-.51,3.35-.35,6.72-.58,10.09-.71,13.68-.5,27.17,1.13,40.73,2.65q18.12,2,36.34,3.08a485,485,0,0,0,50.73.59c16.14-.75,32.5-2.45,48-7.29a79.09,79.09,0,0,0,26.86-14.13,70.8,70.8,0,0,0,19-24.85,89,89,0,0,0,4.16-10.65,6,6,0,0,0-4.19-7.38,6.12,6.12,0,0,0-7.38,4.19q-.72,2.3-1.58,4.55l-.48,1.22c-.08.21-.17.41-.26.62,0,0,.45-1,.16-.37-.45,1-.86,1.93-1.32,2.89q-1.47,3-3.21,5.88c-.6,1-1.23,2-1.88,2.93-.34.5-.68,1-1,1.48-.16.21-1.15,1.54-.73,1a59.54,59.54,0,0,1-24.22,18.51c1-.43-.51.2-.81.32l-1.46.56q-1.51.57-3.06,1.08c-1.78.6-3.59,1.13-5.4,1.64q-5.24,1.49-10.6,2.51-2.85.54-5.71,1l-2.83.41c-1.19.18.9-.11-.31.05l-1.68.21c-4.12.5-8.26.88-12.4,1.18a434.54,434.54,0,0,1-51,.25q-19.92-.93-39.77-3c-12.33-1.3-24.59-3-37-3.17a178,178,0,0,0-33.85,3,122.79,122.79,0,0,0-21.7,6.13A160.37,160.37,0,0,0,302,256.12a214.8,214.8,0,0,0-35.61,29.76,314.37,314.37,0,0,0-38,48.49c-3.18,4.92-6.25,9.93-9.22,15a6,6,0,0,0,10.36,6.06Z" transform="translate(-196.9 -42.36)"/><path class="cls-4" d="M404.54,83l60,65.27a191.22,191.22,0,0,1,15.2,18" transform="translate(-196.9 -42.36)"/><path d="M401.36,86.2,461,151.11c2.66,2.9,5.33,5.79,7.91,8.77q1.86,2.13,3.64,4.32l.88,1.11s.84,1.08.45.57c.67.88,1.32,1.76,2,2.66,1.37,1.9,4,3,6.16,1.61,1.89-1.22,3.08-4.11,1.61-6.16a185.44,185.44,0,0,0-14-16.8q-7.42-8.12-14.88-16.2L424.57,98.17,407.72,79.84a4.53,4.53,0,0,0-6.36,0,4.58,4.58,0,0,0,0,6.36Z" transform="translate(-196.9 -42.36)"/><path class="cls-4" d="M479.77,166.12c11.29-5.59,14.06-6.6,14.22-6.31s-3,2.24-7.33,5.43c0,0-4.91,3.6-12.61,10.42-11.58,10.23-21.32,28.08-39.77,47.17-8.29,8.58-15.07,13.83-24.38,15.32a34,34,0,0,1-13.42-.6" transform="translate(-196.9 -42.36)"/><path d="M482,170c3.56-1.76,7.12-3.53,10.75-5.13l.7-.31c.59-.25-1.19.48-.27.12.31-.12.62-.25.94-.36a3.38,3.38,0,0,0,.64-.19c.33-.21-1.13.13-1,.13a4.41,4.41,0,0,1-4.15-3.23v-2.39c0-.15.62-1.66,1-1.77a1.15,1.15,0,0,0-.23.21c-.47.57,1-.69.16-.13l-2.18,1.54c-1.4,1-2.8,1.94-4.16,3-2.16,1.6-4.27,3.29-6.34,5a130.73,130.73,0,0,0-9.85,8.67,108.18,108.18,0,0,0-7.41,8.45c-2.82,3.51-5.54,7.11-8.27,10.69l-1.9,2.49-1,1.26c-.16.22-.33.43-.49.64.55-.71-.18.23-.29.38-1.51,1.94-3,3.87-4.58,5.79-6.54,8.06-13.45,16.1-21.5,22.69-1,.79.45-.32-.16.13-.26.18-.51.38-.76.56-.51.37-1,.72-1.54,1.06a33.52,33.52,0,0,1-3.11,1.85c-.52.27-1,.54-1.59.78l-.65.29c.55-.24.39-.17-.07,0a30.33,30.33,0,0,1-3.39,1.07q-.79.21-1.59.36l-.91.16c-.23,0-1,.14-.44.07a32.64,32.64,0,0,1-4.53.2c-.68,0-1.37-.06-2.05-.12l-.78-.07c-1-.09.77.14-.27,0s-2.1-.37-3.14-.62a4.5,4.5,0,1,0-2.39,8.68,38.75,38.75,0,0,0,19-.08,41.66,41.66,0,0,0,15.32-8.43A125.8,125.8,0,0,0,444,218.92c4.37-5,8.51-10.16,12.55-15.4,1.76-2.27,3.49-4.56,5.23-6.84.82-1.07,1.64-2.15,2.47-3.22l.61-.79,1.52-1.93a102.49,102.49,0,0,1,9.34-10.52c3.77-3.59,7.85-6.92,11.95-10.13.32-.25,1.47-1.09.07-.06l.57-.43.62-.47c2.07-1.53,4.23-2.94,6.31-4.46a8.64,8.64,0,0,0,2.63-2.51,4.63,4.63,0,0,0-2.73-6.73,6.4,6.4,0,0,0-3.77.37c-4.76,1.79-9.32,4.19-13.87,6.44a4.53,4.53,0,0,0-1.62,6.16A4.62,4.62,0,0,0,482,170Z" transform="translate(-196.9 -42.36)"/><path class="cls-4" d="M250.31,276.78q8.81,5.78,18,10.88" transform="translate(-196.9 -42.36)"/><path d="M247.28,282q8.82,5.78,18,10.88c2.74,1.52,6.67.75,8.21-2.15a6.1,6.1,0,0,0-2.15-8.21q-9.21-5.12-18-10.88a6.05,6.05,0,0,0-8.21,2.15,6.14,6.14,0,0,0,2.15,8.21Z" transform="translate(-196.9 -42.36)"/><path class="cls-5" d="M273.1,250.32" transform="translate(-196.9 -42.36)"/><path class="cls-4" d="M475.91,161.52l-4.81,3.64s-5,3.46-12.9,10.05c-11.87,9.9-22.11,27.46-41.1,46-8.05,7.87-15.41,12.47-24.81,14.62a45.64,45.64,0,0,1-14.26.94" transform="translate(-196.9 -42.36)"/><path d="M473.64,157.63c-5.14,3.9-10.36,7.67-15.38,11.73a92.86,92.86,0,0,0-8.62,7.73c-2.58,2.69-5,5.53-7.38,8.41-5.68,6.86-11.14,13.89-17,20.58-3.4,3.87-6.93,7.64-10.6,11.27-1.79,1.76-3.62,3.48-5.54,5.08-.42.36-.85.7-1.28,1-.12.1-.68.52-.05,0-.21.16-.42.33-.64.48-.89.66-1.8,1.29-2.73,1.9a56.78,56.78,0,0,1-6.28,3.41c-.61.29.67-.27,0,0l-.86.35c-.59.22-1.18.44-1.77.64-1.08.36-2.18.68-3.29,1-1.39.35-2.8.64-4.22.86-.1,0-1.05.14-.53.08l-.74.08c-.7.07-1.4.12-2.11.16a48.48,48.48,0,0,1-6.6-.13,4.53,4.53,0,0,0-4.5,4.5,4.61,4.61,0,0,0,4.5,4.5,49.79,49.79,0,0,0,27.14-5.44c8.83-4.59,16-12,22.63-19.19,6.34-6.88,12.18-14.17,18.07-21.43,4.67-5.76,9.4-11.63,15.06-16.46,2-1.75,4.14-3.43,6.25-5.09l1.28-1c.51-.4-.61.47-.12.09l.63-.48c.66-.5,1.33-1,2-1.51,2.41-1.78,4.81-3.56,7.2-5.38,1.87-1.41,3-3.94,1.61-6.15-1.19-1.85-4.15-3.14-6.15-1.62Z" transform="translate(-196.9 -42.36)"/></svg>