<svg id="Layer_1" data-name="Layer 1" xmlns="http://www.w3.org/2000/svg" viewBox="0 0 1763.49 531.18"><defs><style>.cls-1,.cls-2{fill:#ffd90a;}.cls-2{opacity:0.6;}.cls-3{fill:#ff5dff;}.cls-4{font-size:120px;fill:#fff;font-family:Blenny-Black, Blenny;font-weight:800;}.cls-5{letter-spacing:-0.07em;}</style></defs><path class="cls-1" d="M782.25,312.19" transform="translate(-20.76 -87.06)"/><path class="cls-1" d="M214.28,107.51l54.82.65q-.33,6.2-.65,12.4a23.42,23.42,0,0,0-7.83-1.31,24.2,24.2,0,0,0-13.71,4.57c-27.34,69.73-41.48,108.78-43.07,118.78a22,22,0,0,1-5.22,11.74c-3.76,4.12-8.73,5.78-12.4,6.53l-43.07.65a28,28,0,0,1-8.49-9.79c-4.68-9.2-1.77-17.37-7.18-21.53a11.47,11.47,0,0,0-7.83-2q-.32-3.26-.65-6.53h28.71v6.53c-1.62-.3-7.65-1.27-10.44,2-3.77,4.36.76,14.39,6.53,18.92,7.56,5.95,20.31,4.89,32-2.61l47.64-124a22.24,22.24,0,0,0-7.18-3.27,22.6,22.6,0,0,0-5.88-.65Q212.33,113.05,214.28,107.51Z" transform="translate(-20.76 -87.06)"/><path class="cls-1" d="M235.16,87.93H135.32V99.68A18.49,18.49,0,0,1,147.06,99a19.12,19.12,0,0,1,7.18,4.57c5.68,5.83,34.15,65.5,71.13,148.14H214.93l.66,9.79H273l-.66-10.44H234.51l-42.86-93.89,22.63-.74c.22-1.74.44-3.48.65-5.22l-25.45.66c-.6-1.07-11.53-20.77-7.42-36.32a37.64,37.64,0,0,1,6.12-12.63,23.73,23.73,0,0,1,7.18-6.53c6.62-3.85,13.3-3.21,19.57-2.61a57.46,57.46,0,0,1,20.23,5.88Z" transform="translate(-20.76 -87.06)"/><path class="cls-1" d="M175.12,193.65" transform="translate(-20.76 -87.06)"/><circle class="cls-2" cx="392.66" cy="422.95" r="84.92"/><path class="cls-1" d="M413.42,422.84a86,86,0,1,0,86,86A86,86,0,0,0,413.42,422.84Zm54.11,111.05c-15.13,7.65-30-1.48-30.8-2,1.21,2.74,5.95,14.28,1.13,27.13-.54,1.46-7.8,20-23.73,20.91-13.63.81-24.58-11.77-27.69-23.45-2.95-11,1.32-20.48,2.82-23.46a35.69,35.69,0,0,1-10.73,3.11c-2.12.26-19.24,2.12-30-10.17-1.79-2.05-6.28-7.36-6.78-15.26-.75-12,8.25-20.07,9.89-21.47,10.82-9.27,24.72-6.52,27.69-5.94a35.8,35.8,0,0,1,9.05,3.11C383,469.74,386,453.26,396,445.16a28.88,28.88,0,0,1,16.39-5.93c10.47,0,17.35,6.63,18.65,7.91,9.23,9.09,11.3,24.63,5.37,39.28a38.49,38.49,0,0,1,9-3.11c3.49-.73,13.45-2.8,22.89,2.26,7.51,4,15.79,13.16,15.26,25.15C483,525.79,469,533.18,467.53,533.89Z" transform="translate(-20.76 -87.06)"/><circle class="cls-1" cx="391.39" cy="421.68" r="18.08"/><path class="cls-1" d="M921.28,413" transform="translate(-20.76 -87.06)"/><path class="cls-3" d="M1866,351" transform="translate(-20.76 -87.06)"/><path class="cls-2" d="M510.09,187.53A142.79,142.79,0,0,0,409.61,288,151.9,151.9,0,0,0,309.14,187.53a184.18,184.18,0,0,0,63.36-43.16,183.93,183.93,0,0,0,37.11-57.31A181,181,0,0,0,510.09,187.53Z" transform="translate(-20.76 -87.06)"/><path class="cls-1" d="M474.56,180.75c-7-7.14-16.78-14.34-28.31-14.15-11.73.19-20.35,8-23.59,4.71a2.84,2.84,0,0,1-.78-1.65c-.13-3.62,4.52-9.4,5.38-17a24.62,24.62,0,0,0-1.51-11.33c-2-9.2-7.53-17.16-12.52-22.94l-2.1-3.14c-.91,1.11-1.83,2.22-2.74,3.34-4.81,5.57-10.13,13.15-12.29,21.92a24.84,24.84,0,0,0-1.74,11.95c1,9.1,7.44,15.56,4.72,18.87a2.81,2.81,0,0,1-.92.73c-3.71,1.61-11.92-5.07-22.79-5.25-11.54-.19-21.28,7-28.31,14.15l-2.5,2.43,2.62,2.1c8.44,7.58,15.59,11.42,21.52,13.15a24.26,24.26,0,0,0,6.67,1.19H376a25.61,25.61,0,0,0,4.2-.2,36.3,36.3,0,0,0,8.15-2.22c5.37-1.89,9.34-3.93,10.59-2.3,1.59,2.07-3.67,6.86-5.76,13.1-2.63,7.82-.92,19.82,15.2,38.79l2.22,3.48c.87-1.23,1.75-2.45,2.62-3.67,16.12-19,17.83-31,15.2-38.79-2-6-7-10.73-5.9-12.9h0c2.39-2.52,9.72,3.5,18.87,4.71,7.22,1,18.11-.74,33-14.15l4.31-2.29Zm-64,11.69a9.46,9.46,0,1,1,9.45-9.46A9.46,9.46,0,0,1,410.6,192.44Z" transform="translate(-20.76 -87.06)"/><ellipse class="cls-2" cx="67.81" cy="269.31" rx="19.04" ry="9.72"/><path class="cls-1" d="M151.62,353.84c-7.08-7.19-16.88-14.44-28.49-14.25-11.81.19-20.49,8-23.75,4.75a2.82,2.82,0,0,1-.79-1.66c-.13-3.65,4.55-9.46,5.42-17.14a24.74,24.74,0,0,0-1.53-11.41c-2-9.25-7.57-17.26-12.6-23.09-.7-1.05-1.4-2.11-2.11-3.16L85,291.24c-4.84,5.61-10.2,13.25-12.37,22.08a25,25,0,0,0-1.75,12c1,9.16,7.49,15.67,4.75,19a2.81,2.81,0,0,1-.92.73c-3.74,1.62-12-5.1-22.95-5.28-11.61-.19-21.41,7.06-28.5,14.25l-2.51,2.44,2.64,2.11c8.49,7.63,15.69,11.5,21.66,13.24a24.55,24.55,0,0,0,6.71,1.2h.65a25.8,25.8,0,0,0,4.22-.2,36.93,36.93,0,0,0,8.22-2.24c5.4-1.9,9.4-4,10.65-2.32,1.61,2.09-3.69,6.92-5.8,13.19-2.65,7.88-.93,19.95,15.3,39l2.24,3.5,2.63-3.69c16.24-19.1,18-31.18,15.31-39.05-2-6.08-7.07-10.8-5.94-13h0c2.41-2.53,9.79,3.53,19,4.75,7.26,1,18.23-.75,33.24-14.25l4.35-2.3ZM87.24,365.61a9.52,9.52,0,1,1,9.52-9.52A9.52,9.52,0,0,1,87.24,365.61Z" transform="translate(-20.76 -87.06)"/><circle class="cls-2" cx="817.88" cy="422.54" r="84.92"/><path class="cls-1" d="M838.64,422.43a86,86,0,1,0,86,86A86,86,0,0,0,838.64,422.43Zm54.11,111.05c-15.14,7.64-30-1.48-30.8-2,1.21,2.73,5.94,14.27,1.13,27.13-.55,1.46-7.8,20-23.74,20.91-13.63.8-24.57-11.77-27.69-23.46-2.94-11,1.33-20.48,2.83-23.45a36.06,36.06,0,0,1-10.74,3.11c-2.11.26-19.23,2.12-30-10.17-1.79-2.06-6.29-7.36-6.78-15.26-.76-12,8.24-20.07,9.88-21.48,10.82-9.26,24.72-6.52,27.7-5.93a35.31,35.31,0,0,1,9,3.11c-5.42-16.69-2.38-33.16,7.63-41.26a28.78,28.78,0,0,1,16.39-5.93c10.46,0,17.35,6.63,18.65,7.91,9.23,9.09,11.3,24.63,5.37,39.28a38.16,38.16,0,0,1,9-3.11c3.49-.73,13.45-2.8,22.89,2.26,7.5,4,15.78,13.15,15.25,25.15C908.19,525.38,894.16,532.76,892.75,533.48Z" transform="translate(-20.76 -87.06)"/><circle class="cls-1" cx="816.61" cy="421.27" r="18.08"/><path class="cls-1" d="M641.84,505.72" transform="translate(-20.76 -87.06)"/><ellipse class="cls-2" cx="274.32" cy="269.89" rx="19.04" ry="9.72"/><path class="cls-1" d="M358.13,354.42c-7.08-7.19-16.89-14.44-28.5-14.25-11.81.19-20.49,8-23.74,4.75a2.82,2.82,0,0,1-.79-1.67c-.13-3.64,4.55-9.45,5.41-17.13A24.73,24.73,0,0,0,309,314.71c-2-9.26-7.58-17.26-12.6-23.09l-2.11-3.16-2.76,3.36c-4.84,5.61-10.2,13.25-12.37,22.07a25.08,25.08,0,0,0-1.76,12c1,9.16,7.49,15.66,4.75,19a2.81,2.81,0,0,1-.92.73c-3.74,1.62-12-5.11-23-5.28-11.6-.19-21.41,7.06-28.49,14.24l-2.52,2.44,2.64,2.12c8.5,7.63,15.69,11.49,21.66,13.24a24.69,24.69,0,0,0,6.71,1.2h.65a25.87,25.87,0,0,0,4.23-.21,36.31,36.31,0,0,0,8.21-2.23c5.4-1.9,9.4-4,10.66-2.32,1.6,2.09-3.7,6.91-5.81,13.19-2.64,7.88-.92,19.95,15.31,39.05l2.23,3.5,2.64-3.7c16.23-19.1,17.95-31.17,15.3-39-2-6.08-7.07-10.8-5.93-13h0c2.41-2.53,9.79,3.53,19,4.75,7.27,1,18.23-.75,33.25-14.25l4.34-2.31Zm-64.39,11.76a9.52,9.52,0,1,1,9.52-9.51A9.52,9.52,0,0,1,293.74,366.18Z" transform="translate(-20.76 -87.06)"/><ellipse class="cls-2" cx="490.99" cy="267.69" rx="19.04" ry="9.72"/><path class="cls-1" d="M574.8,352.21c-7.09-7.18-16.89-14.43-28.5-14.25-11.81.2-20.49,8-23.74,4.75a2.76,2.76,0,0,1-.79-1.66c-.13-3.65,4.55-9.46,5.41-17.14a24.82,24.82,0,0,0-1.52-11.4c-2-9.26-7.58-17.27-12.6-23.09L511,286.25l-2.76,3.36c-4.84,5.61-10.2,13.25-12.37,22.08a25,25,0,0,0-1.76,12c1,9.15,7.49,15.66,4.75,19a2.84,2.84,0,0,1-.92.74c-3.74,1.61-12-5.11-22.95-5.29-11.61-.19-21.41,7.06-28.49,14.25l-2.52,2.44,2.64,2.11c8.5,7.64,15.69,11.5,21.66,13.24a24.69,24.69,0,0,0,6.71,1.2h.65a25.8,25.8,0,0,0,4.22-.2A36.26,36.26,0,0,0,488,369c5.4-1.9,9.4-4,10.66-2.31,1.6,2.08-3.7,6.91-5.81,13.19-2.64,7.87-.93,19.94,15.31,39l2.23,3.49,2.64-3.69c16.23-19.1,18-31.18,15.3-39.05-2-6.08-7.07-10.8-5.94-13h0c2.41-2.54,9.79,3.53,19,4.74,7.27,1,18.23-.75,33.24-14.24l4.35-2.31ZM510.41,364a9.52,9.52,0,1,1,9.52-9.52A9.52,9.52,0,0,1,510.41,364Z" transform="translate(-20.76 -87.06)"/><ellipse class="cls-2" cx="706.49" cy="268.26" rx="19.04" ry="9.72"/><path class="cls-1" d="M790.3,352.79c-7.08-7.19-16.89-14.44-28.49-14.25-11.82.19-20.49,8-23.75,4.75a2.82,2.82,0,0,1-.79-1.66c-.13-3.65,4.55-9.46,5.42-17.14a24.76,24.76,0,0,0-1.53-11.41c-2-9.25-7.57-17.26-12.6-23.08-.7-1.06-1.4-2.12-2.11-3.17l-2.76,3.36c-4.84,5.61-10.2,13.25-12.37,22.08a25,25,0,0,0-1.75,12c1,9.16,7.49,15.67,4.75,19a2.81,2.81,0,0,1-.93.73c-3.74,1.62-12-5.1-22.94-5.28C678.84,338.55,669,345.8,662,353c-.84.81-1.68,1.62-2.51,2.44.88.7,1.76,1.4,2.63,2.11,8.5,7.63,15.7,11.5,21.66,13.24a24.69,24.69,0,0,0,6.72,1.2h.64a25.87,25.87,0,0,0,4.23-.2,36.84,36.84,0,0,0,8.21-2.24c5.41-1.9,9.4-4,10.66-2.32,1.6,2.09-3.69,6.92-5.8,13.2-2.65,7.87-.93,19.94,15.3,39l2.23,3.5,2.64-3.69c16.23-19.1,18-31.18,15.31-39-2-6.08-7.08-10.8-5.94-13h0c2.41-2.53,9.79,3.53,19,4.75,7.27,1,18.24-.75,33.25-14.24l4.34-2.31Zm-64.38,11.77a9.52,9.52,0,1,1,9.51-9.52A9.52,9.52,0,0,1,725.92,364.56Z" transform="translate(-20.76 -87.06)"/><ellipse class="cls-2" cx="923.27" cy="267.81" rx="19.04" ry="9.72"/><path class="cls-1" d="M1007.08,352.33c-7.08-7.19-16.89-14.44-28.5-14.25-11.81.2-20.49,8-23.74,4.75a2.82,2.82,0,0,1-.79-1.66c-.13-3.65,4.55-9.46,5.41-17.14a24.74,24.74,0,0,0-1.52-11.41c-2-9.25-7.58-17.26-12.6-23.08l-2.11-3.17-2.76,3.36c-4.84,5.61-10.2,13.25-12.37,22.08a25.07,25.07,0,0,0-1.76,12c1,9.15,7.49,15.66,4.75,19a2.84,2.84,0,0,1-.92.74c-3.74,1.61-12-5.11-22.95-5.29-11.6-.19-21.41,7.06-28.49,14.25L876.21,355l2.64,2.11c8.5,7.64,15.7,11.5,21.66,13.24a24.69,24.69,0,0,0,6.71,1.2h.65a25.87,25.87,0,0,0,4.23-.2,36.31,36.31,0,0,0,8.21-2.24c5.41-1.9,9.4-4,10.66-2.32,1.6,2.09-3.69,6.92-5.8,13.2-2.65,7.87-.93,19.94,15.3,39l2.23,3.49,2.64-3.69c16.23-19.1,17.95-31.18,15.3-39.05-2-6.08-7.07-10.8-5.93-13v0c2.4-2.53,9.78,3.53,19,4.75,7.27,1,18.23-.75,33.25-14.24l4.34-2.31ZM942.69,364.1a9.52,9.52,0,1,1,9.52-9.52A9.51,9.51,0,0,1,942.69,364.1Z" transform="translate(-20.76 -87.06)"/><ellipse class="cls-2" cx="1129.77" cy="268.38" rx="19.04" ry="9.72"/><path class="cls-1" d="M1213.58,352.91c-7.08-7.19-16.88-14.44-28.49-14.25-11.81.19-20.49,8-23.75,4.75a2.82,2.82,0,0,1-.79-1.66c-.13-3.65,4.55-9.46,5.42-17.14a24.74,24.74,0,0,0-1.53-11.41c-2-9.25-7.57-17.26-12.6-23.09-.7-1.05-1.4-2.11-2.11-3.16l-2.76,3.36c-4.84,5.61-10.2,13.25-12.37,22.08a25,25,0,0,0-1.75,12c1,9.16,7.49,15.67,4.75,19a2.84,2.84,0,0,1-.93.73c-3.73,1.62-12-5.1-22.94-5.28-11.61-.19-21.41,7.06-28.5,14.25l-2.51,2.44,2.64,2.11c8.49,7.63,15.69,11.5,21.66,13.24a24.55,24.55,0,0,0,6.71,1.2h.64a25.87,25.87,0,0,0,4.23-.2,36.84,36.84,0,0,0,8.21-2.24c5.41-1.9,9.4-4,10.66-2.32,1.6,2.09-3.69,6.92-5.8,13.19-2.65,7.88-.93,19.95,15.3,39l2.24,3.5,2.63-3.69c16.24-19.1,18-31.18,15.31-39-2.05-6.08-7.07-10.8-5.94-13h0c2.41-2.53,9.79,3.53,19,4.75,7.26,1,18.23-.75,33.24-14.25l4.34-2.3Zm-64.38,11.77a9.52,9.52,0,1,1,9.52-9.52A9.52,9.52,0,0,1,1149.2,364.68Z" transform="translate(-20.76 -87.06)"/><ellipse class="cls-2" cx="1346.44" cy="266.18" rx="19.04" ry="9.72"/><path class="cls-1" d="M1430.25,350.7c-7.08-7.18-16.89-14.43-28.49-14.24-11.81.19-20.49,8-23.75,4.75a2.85,2.85,0,0,1-.79-1.67c-.13-3.64,4.55-9.46,5.42-17.13a24.73,24.73,0,0,0-1.53-11.41c-2-9.26-7.57-17.27-12.6-23.09l-2.11-3.17-2.76,3.37c-4.84,5.61-10.2,13.24-12.37,22.07a25.06,25.06,0,0,0-1.75,12c1,9.15,7.49,15.66,4.75,19a3.1,3.1,0,0,1-.93.73c-3.74,1.62-12-5.11-22.94-5.29-11.61-.19-21.42,7.06-28.5,14.25l-2.51,2.44,2.64,2.11c8.49,7.64,15.69,11.5,21.65,13.24a24.7,24.7,0,0,0,6.72,1.21h.64a25.81,25.81,0,0,0,4.23-.21,36.84,36.84,0,0,0,8.21-2.23c5.41-1.9,9.4-4,10.66-2.32,1.6,2.08-3.69,6.91-5.8,13.19-2.65,7.87-.93,20,15.3,39.05.75,1.16,1.49,2.33,2.23,3.5l2.64-3.7c16.23-19.1,18-31.17,15.31-39.05-2-6.08-7.07-10.79-5.94-13h0c2.41-2.54,9.79,3.53,19,4.75,7.26,1,18.23-.76,33.24-14.25l4.34-2.31Zm-64.38,11.77a9.52,9.52,0,1,1,9.51-9.52A9.52,9.52,0,0,1,1365.87,362.47Z" transform="translate(-20.76 -87.06)"/><ellipse class="cls-2" cx="1561.95" cy="266.76" rx="19.04" ry="9.72"/><path class="cls-1" d="M1645.76,351.28c-7.09-7.18-16.89-14.43-28.5-14.25-11.81.2-20.49,8-23.74,4.75a2.76,2.76,0,0,1-.79-1.66c-.13-3.65,4.55-9.46,5.41-17.14a24.82,24.82,0,0,0-1.52-11.4c-2-9.26-7.58-17.27-12.6-23.09l-2.11-3.17-2.76,3.36c-4.84,5.61-10.21,13.25-12.37,22.08a25,25,0,0,0-1.76,12c1,9.15,7.49,15.66,4.75,19a2.84,2.84,0,0,1-.92.74c-3.74,1.61-12-5.11-22.95-5.29-11.61-.19-21.41,7.06-28.49,14.25l-2.52,2.44,2.64,2.11c8.49,7.64,15.69,11.5,21.66,13.24a24.62,24.62,0,0,0,6.71,1.2h.65a25.8,25.8,0,0,0,4.22-.2A36.26,36.26,0,0,0,1559,368c5.4-1.9,9.4-4,10.66-2.31,1.6,2.08-3.7,6.91-5.81,13.19-2.64,7.87-.93,19.94,15.31,39.05.74,1.16,1.48,2.33,2.23,3.49l2.64-3.69c16.23-19.1,18-31.18,15.3-39-2-6.08-7.07-10.8-5.94-13h0c2.41-2.54,9.79,3.53,19,4.74,7.27,1,18.23-.75,33.24-14.24l4.35-2.31Zm-64.39,11.77a9.52,9.52,0,1,1,9.52-9.52A9.52,9.52,0,0,1,1581.37,363.05Z" transform="translate(-20.76 -87.06)"/><path class="cls-1" d="M642.8,108l54.82.65q-.32,6.2-.65,12.4a23.08,23.08,0,0,0-7.83-1.31,24.2,24.2,0,0,0-13.71,4.57C648.09,194,634,233,632.36,243a22.05,22.05,0,0,1-5.22,11.75c-3.76,4.12-8.72,5.78-12.4,6.53l-43.07.65a28.06,28.06,0,0,1-8.48-9.79c-4.69-9.2-1.78-17.37-7.18-21.53a11.45,11.45,0,0,0-7.83-2l-.66-6.53h28.72v6.53c-1.62-.31-7.65-1.27-10.44,2-3.77,4.36.76,14.38,6.52,18.92,7.56,5.95,20.32,4.89,32-2.61l47.64-124a22,22,0,0,0-7.18-3.27,21.73,21.73,0,0,0-5.87-.65Q640.84,113.49,642.8,108Z" transform="translate(-20.76 -87.06)"/><path class="cls-1" d="M663.69,88.37H563.84v11.74a18.59,18.59,0,0,1,11.75-.65,19,19,0,0,1,7.17,4.57c5.68,5.83,34.16,65.5,71.14,148.14H643.46c.21,3.26.43,6.53.65,9.79h57.43q-.33-5.22-.65-10.44H663q-21.42-47-42.86-93.9l22.63-.73.66-5.22-25.46.65c-.6-1.06-11.53-20.76-7.42-36.31a37.64,37.64,0,0,1,6.12-12.63,23.85,23.85,0,0,1,7.18-6.53c6.62-3.86,13.3-3.21,19.58-2.61a57.67,57.67,0,0,1,20.23,5.87Z" transform="translate(-20.76 -87.06)"/><path class="cls-1" d="M603.65,194.09" transform="translate(-20.76 -87.06)"/><path class="cls-2" d="M938.61,188A142.75,142.75,0,0,0,838.14,288.45,151.93,151.93,0,0,0,737.66,188,184.09,184.09,0,0,0,801,144.81,184,184,0,0,0,838.14,87.5,180.95,180.95,0,0,0,938.61,188Z" transform="translate(-20.76 -87.06)"/><path class="cls-1" d="M903.08,181.19c-7-7.14-16.77-14.35-28.3-14.16-11.74.19-20.36,8-23.59,4.72a2.79,2.79,0,0,1-.79-1.65c-.12-3.62,4.52-9.4,5.38-17a24.65,24.65,0,0,0-1.51-11.33c-2-9.19-7.53-17.15-12.52-22.93-.7-1-1.4-2.1-2.09-3.15L836.91,119c-4.8,5.58-10.13,13.16-12.28,21.93a24.74,24.74,0,0,0-1.75,11.95c1,9.09,7.44,15.56,4.72,18.87a2.81,2.81,0,0,1-.92.73c-3.71,1.6-11.91-5.08-22.79-5.25-11.53-.19-21.27,7-28.31,14.15l-2.5,2.43,2.62,2.09c8.44,7.59,15.59,11.43,21.52,13.16a24.7,24.7,0,0,0,6.67,1.19h.64a25.49,25.49,0,0,0,4.2-.2,36.54,36.54,0,0,0,8.16-2.22c5.37-1.89,9.34-3.94,10.59-2.31,1.59,2.08-3.67,6.87-5.77,13.11-2.63,7.82-.92,19.81,15.2,38.79l2.22,3.47c.87-1.22,1.75-2.44,2.62-3.67,16.13-19,17.83-31,15.2-38.79-2-6-7-10.72-5.89-12.9h0c2.39-2.51,9.72,3.51,18.87,4.72,7.22,1,18.11-.75,33-14.15l4.32-2.29Zm-64,11.69a9.46,9.46,0,1,1,9.46-9.46A9.46,9.46,0,0,1,839.12,192.88Z" transform="translate(-20.76 -87.06)"/><path class="cls-2" d="M1338.15,195.72A142.79,142.79,0,0,0,1237.67,296.2,151.9,151.9,0,0,0,1137.2,195.72a184,184,0,0,0,63.35-43.17,183.58,183.58,0,0,0,37.12-57.31,181,181,0,0,0,100.48,100.48Z" transform="translate(-20.76 -87.06)"/><path class="cls-1" d="M1302.62,188.93c-7-7.13-16.78-14.34-28.31-14.15-11.73.19-20.35,7.95-23.59,4.72a2.78,2.78,0,0,1-.78-1.66c-.13-3.61,4.52-9.39,5.38-17a24.53,24.53,0,0,0-1.52-11.33c-2-9.19-7.52-17.15-12.51-22.93l-2.1-3.15-2.74,3.34c-4.81,5.57-10.13,13.16-12.29,21.93a24.84,24.84,0,0,0-1.74,11.95c1,9.09,7.44,15.56,4.72,18.87a2.94,2.94,0,0,1-.92.73c-3.72,1.6-11.92-5.08-22.8-5.25-11.53-.19-21.27,7-28.3,14.15l-2.5,2.42,2.62,2.1c8.44,7.59,15.59,11.42,21.52,13.15a24.26,24.26,0,0,0,6.66,1.2h.65a25.38,25.38,0,0,0,4.19-.21,36.25,36.25,0,0,0,8.16-2.21c5.37-1.89,9.34-3.94,10.59-2.31,1.59,2.07-3.67,6.87-5.76,13.11-2.63,7.82-.93,19.81,15.2,38.79l2.22,3.47c.87-1.22,1.74-2.45,2.62-3.67,16.12-19,17.83-31,15.2-38.79-2-6-7-10.72-5.9-12.9h0c2.39-2.52,9.72,3.51,18.87,4.72,7.22,1,18.11-.75,33-14.15l4.31-2.3Zm-64,11.69a9.46,9.46,0,1,1,9.45-9.45A9.46,9.46,0,0,1,1238.66,200.62Z" transform="translate(-20.76 -87.06)"/><path class="cls-1" d="M1470.86,116.13l54.82.65q-.33,6.21-.65,12.4a23.11,23.11,0,0,0-7.83-1.3,24.2,24.2,0,0,0-13.71,4.57c-27.34,69.72-41.48,108.77-43.07,118.77A22.08,22.08,0,0,1,1455.2,263c-3.76,4.11-8.72,5.77-12.4,6.52l-43.07.66a28.17,28.17,0,0,1-8.49-9.79c-4.68-9.2-1.77-17.37-7.17-21.54a11.5,11.5,0,0,0-7.83-2l-.66-6.52h28.72v6.52c-1.62-.3-7.65-1.27-10.44,2-3.77,4.36.76,14.39,6.52,18.93,7.56,5.94,20.31,4.89,32-2.61l47.64-124a22,22,0,0,0-7.18-3.26,21.73,21.73,0,0,0-5.87-.65Z" transform="translate(-20.76 -87.06)"/><path class="cls-1" d="M1491.75,96.55H1391.9V108.3a18.5,18.5,0,0,1,11.74-.65,19,19,0,0,1,7.18,4.57C1416.5,118,1445,177.71,1482,260.36h-10.44q.32,4.89.65,9.79h57.43c-.22-3.48-.44-7-.65-10.45h-37.86l-42.86-93.89,22.63-.73.66-5.22-25.46.65c-.6-1.07-11.53-20.76-7.42-36.32a37.64,37.64,0,0,1,6.12-12.63,23.84,23.84,0,0,1,7.18-6.52c6.62-3.86,13.3-3.22,19.58-2.61a57.29,57.29,0,0,1,20.23,5.87Z" transform="translate(-20.76 -87.06)"/><path class="cls-1" d="M1431.71,202.27" transform="translate(-20.76 -87.06)"/><path class="cls-2" d="M1766.67,196.16A142.72,142.72,0,0,0,1666.2,296.63a151.95,151.95,0,0,0-100.48-100.47A184.15,184.15,0,0,0,1629.08,153a184,184,0,0,0,37.12-57.31,181,181,0,0,0,100.47,100.48Z" transform="translate(-20.76 -87.06)"/><path class="cls-1" d="M1731.14,189.37c-7-7.14-16.77-14.34-28.31-14.15-11.73.19-20.35,7.95-23.58,4.72a2.82,2.82,0,0,1-.79-1.66c-.13-3.62,4.52-9.39,5.38-17a24.65,24.65,0,0,0-1.51-11.33c-2-9.2-7.53-17.15-12.52-22.94l-2.1-3.14-2.74,3.34c-4.8,5.57-10.13,13.16-12.28,21.93a24.7,24.7,0,0,0-1.75,11.94c1,9.1,7.44,15.56,4.72,18.88a2.78,2.78,0,0,1-.92.72c-3.71,1.61-11.91-5.07-22.79-5.25-11.53-.18-21.27,7-28.31,14.16l-2.5,2.42,2.62,2.1c8.44,7.58,15.59,11.42,21.52,13.15a24.71,24.71,0,0,0,6.67,1.2h.64a26.58,26.58,0,0,0,4.2-.21A36.54,36.54,0,0,0,1645,206c5.37-1.89,9.33-3.93,10.59-2.3,1.59,2.07-3.67,6.87-5.77,13.1-2.63,7.83-.92,19.82,15.2,38.79l2.22,3.48c.87-1.23,1.75-2.45,2.62-3.67,16.13-19,17.83-31,15.2-38.79-2-6-7-10.73-5.89-12.9h0c2.4-2.52,9.73,3.51,18.88,4.72,7.21.95,18.11-.75,33-14.16q2.16-1.14,4.31-2.29Zm-64,11.69a9.46,9.46,0,1,1,9.46-9.45A9.45,9.45,0,0,1,1667.18,201.06Z" transform="translate(-20.76 -87.06)"/><path class="cls-2" d="M301.25,505.74A142.7,142.7,0,0,0,200.77,606.21a152.92,152.92,0,0,0-40.14-65,152.54,152.54,0,0,0-60.34-35.44A183.35,183.35,0,0,0,200.77,405.26,181,181,0,0,0,301.25,505.74Z" transform="translate(-20.76 -87.06)"/><path class="cls-1" d="M265.71,499c-7-7.14-16.77-14.34-28.3-14.15-11.74.19-20.36,7.95-23.59,4.71a2.79,2.79,0,0,1-.79-1.65c-.12-3.62,4.52-9.4,5.38-17a24.62,24.62,0,0,0-1.51-11.33c-2-9.2-7.53-17.15-12.52-22.94l-2.09-3.14-2.75,3.34c-4.8,5.57-10.13,13.16-12.28,21.92a24.76,24.76,0,0,0-1.75,11.95c1,9.1,7.44,15.56,4.72,18.87a2.81,2.81,0,0,1-.92.73c-3.71,1.61-11.91-5.07-22.79-5.25-11.53-.19-21.27,7-28.31,14.15l-2.5,2.43,2.62,2.1c8.44,7.58,15.59,11.42,21.52,13.15a24.32,24.32,0,0,0,6.67,1.19h.64a25.49,25.49,0,0,0,4.2-.2,36.39,36.39,0,0,0,8.16-2.22c5.37-1.89,9.34-3.93,10.59-2.3,1.59,2.07-3.67,6.86-5.77,13.1-2.63,7.82-.92,19.82,15.2,38.79l2.22,3.48,2.62-3.67c16.13-19,17.83-31,15.2-38.79-2-6-7-10.73-5.89-12.9h0c2.39-2.52,9.72,3.5,18.87,4.71,7.22,1,18.11-.74,33-14.15l4.32-2.29Zm-64,11.69a9.46,9.46,0,1,1,9.46-9.46A9.45,9.45,0,0,1,201.75,510.64Z" transform="translate(-20.76 -87.06)"/><path class="cls-2" d="M726.77,517.17A142.79,142.79,0,0,0,626.29,617.65,151.88,151.88,0,0,0,525.81,517.17,183.29,183.29,0,0,0,626.29,416.7,181,181,0,0,0,726.77,517.17Z" transform="translate(-20.76 -87.06)"/><path class="cls-1" d="M691.24,510.39c-7-7.14-16.78-14.34-28.31-14.16-11.73.19-20.36,8-23.59,4.72a2.78,2.78,0,0,1-.78-1.65c-.13-3.62,4.52-9.4,5.38-17a24.56,24.56,0,0,0-1.52-11.34c-2-9.19-7.53-17.15-12.51-22.93l-2.1-3.15-2.74,3.34c-4.81,5.58-10.14,13.16-12.29,21.93A25,25,0,0,0,611,482.08c1,9.09,7.45,15.56,4.72,18.87a2.88,2.88,0,0,1-.91.73c-3.72,1.61-11.92-5.07-22.8-5.25-11.53-.19-21.27,7-28.3,14.15l-2.5,2.43,2.62,2.09c8.44,7.59,15.59,11.43,21.51,13.16a24.77,24.77,0,0,0,6.67,1.19h.64a25.49,25.49,0,0,0,4.2-.2A36.25,36.25,0,0,0,605,527c5.37-1.89,9.34-3.94,10.59-2.31,1.59,2.08-3.67,6.87-5.77,13.11-2.62,7.82-.92,19.81,15.21,38.79l2.21,3.47,2.63-3.67c16.12-19,17.83-31,15.2-38.79-2-6-7-10.72-5.9-12.89v0c2.39-2.51,9.72,3.51,18.87,4.72,7.22,1,18.11-.75,33-14.15l4.32-2.29Zm-64,11.69a9.46,9.46,0,1,1,9.45-9.46A9.46,9.46,0,0,1,627.28,522.08Z" transform="translate(-20.76 -87.06)"/><circle class="cls-2" cx="1252.24" cy="423.54" r="84.92"/><path class="cls-1" d="M1273,423.43a86,86,0,1,0,86,86.05A86,86,0,0,0,1273,423.43Zm54.11,111.05c-15.13,7.65-30-1.47-30.8-2,1.21,2.73,6,14.27,1.13,27.12-.55,1.47-7.8,20-23.74,20.91-13.63.81-24.57-11.77-27.69-23.45-2.94-11.05,1.33-20.48,2.83-23.45a35.8,35.8,0,0,1-10.74,3.1c-2.11.27-19.23,2.13-29.95-10.17-1.79-2.05-6.29-7.36-6.78-15.26-.76-12,8.24-20.07,9.89-21.47,10.81-9.26,24.72-6.52,27.69-5.94a35.7,35.7,0,0,1,9,3.11c-5.41-16.68-2.38-33.15,7.63-41.25a28.83,28.83,0,0,1,16.39-5.94c10.46,0,17.35,6.64,18.65,7.92,9.23,9.09,11.3,24.62,5.37,39.27a38.62,38.62,0,0,1,9-3.11c3.49-.72,13.45-2.8,22.89,2.26,7.5,4,15.78,13.16,15.26,25.15C1342.55,526.38,1328.52,533.77,1327.11,534.48Z" transform="translate(-20.76 -87.06)"/><circle class="cls-1" cx="1250.97" cy="422.28" r="18.08"/><circle class="cls-2" cx="1677.45" cy="423.13" r="84.92"/><path class="cls-1" d="M1698.21,423a86,86,0,1,0,86,86A86,86,0,0,0,1698.21,423Zm54.11,111.05c-15.13,7.64-30-1.48-30.8-2,1.21,2.74,6,14.28,1.13,27.13-.55,1.46-7.8,20-23.73,20.91-13.63.81-24.58-11.77-27.69-23.45-3-11,1.32-20.48,2.82-23.46a36.06,36.06,0,0,1-10.74,3.11c-2.11.26-19.23,2.12-30-10.17-1.79-2-6.28-7.36-6.78-15.26-.75-12,8.25-20.07,9.89-21.48,10.82-9.26,24.72-6.52,27.69-5.93a35.17,35.17,0,0,1,9,3.11c-5.41-16.68-2.37-33.16,7.63-41.26a28.8,28.8,0,0,1,16.39-5.93c10.47,0,17.35,6.63,18.65,7.91,9.23,9.09,11.3,24.63,5.37,39.28a38.33,38.33,0,0,1,9-3.11c3.49-.73,13.45-2.8,22.89,2.26,7.51,4,15.79,13.16,15.26,25.15C1767.77,526,1753.74,533.36,1752.32,534.07Z" transform="translate(-20.76 -87.06)"/><circle class="cls-1" cx="1676.18" cy="421.86" r="18.08"/><path class="cls-2" d="M1160.82,506.33a142.74,142.74,0,0,0-100.48,100.48A151.9,151.9,0,0,0,959.87,506.33a183.37,183.37,0,0,0,100.47-100.48,181.07,181.07,0,0,0,100.48,100.48Z" transform="translate(-20.76 -87.06)"/><path class="cls-1" d="M1125.29,499.54c-7-7.14-16.78-14.34-28.31-14.15-11.73.19-20.35,7.95-23.59,4.72a2.81,2.81,0,0,1-.78-1.66c-.13-3.62,4.52-9.39,5.38-17a24.53,24.53,0,0,0-1.52-11.33c-2-9.2-7.52-17.15-12.51-22.94l-2.1-3.14-2.74,3.34c-4.81,5.57-10.14,13.16-12.29,21.93a24.83,24.83,0,0,0-1.74,11.95c1,9.09,7.44,15.55,4.71,18.87a2.74,2.74,0,0,1-.91.72c-3.72,1.61-11.92-5.07-22.8-5.25-11.53-.18-21.27,7-28.3,14.16l-2.5,2.42,2.62,2.1c8.44,7.58,15.59,11.42,21.52,13.15a24.64,24.64,0,0,0,6.66,1.2h.65a25.38,25.38,0,0,0,4.19-.21,36.25,36.25,0,0,0,8.16-2.22c5.37-1.89,9.34-3.93,10.59-2.3,1.59,2.07-3.67,6.87-5.76,13.1-2.63,7.83-.93,19.82,15.2,38.79l2.22,3.48c.87-1.22,1.74-2.45,2.62-3.67,16.12-19,17.83-31,15.2-38.79-2-6-7-10.73-5.9-12.9h0c2.39-2.52,9.72,3.51,18.87,4.72,7.22.95,18.11-.75,33-14.16l4.31-2.29Q1127.38,500.86,1125.29,499.54Zm-64,11.69a9.46,9.46,0,1,1,9.45-9.45A9.46,9.46,0,0,1,1061.33,511.23Z" transform="translate(-20.76 -87.06)"/><path class="cls-2" d="M1586.34,517.77a142.72,142.72,0,0,0-100.47,100.47,151.95,151.95,0,0,0-100.48-100.47,183.35,183.35,0,0,0,100.48-100.48,181,181,0,0,0,100.47,100.48Z" transform="translate(-20.76 -87.06)"/><path class="cls-1" d="M1550.81,511c-7-7.14-16.77-14.34-28.31-14.15-11.73.19-20.35,7.95-23.58,4.71a2.79,2.79,0,0,1-.79-1.65c-.13-3.62,4.52-9.4,5.38-17a24.62,24.62,0,0,0-1.51-11.33c-2-9.2-7.53-17.15-12.52-22.94l-2.1-3.14c-.91,1.11-1.83,2.22-2.74,3.34-4.81,5.57-10.13,13.16-12.29,21.92a24.86,24.86,0,0,0-1.74,11.95c1,9.1,7.44,15.56,4.72,18.87a2.81,2.81,0,0,1-.92.73c-3.71,1.61-11.91-5.07-22.79-5.25-11.53-.19-21.27,7-28.31,14.15l-2.5,2.43,2.62,2.1c8.44,7.58,15.59,11.42,21.52,13.15a24.32,24.32,0,0,0,6.67,1.19h.64a25.61,25.61,0,0,0,4.2-.2,36.54,36.54,0,0,0,8.16-2.22c5.37-1.89,9.33-3.93,10.59-2.3,1.59,2.07-3.67,6.86-5.77,13.1-2.63,7.82-.92,19.82,15.2,38.79l2.22,3.48c.87-1.23,1.75-2.45,2.62-3.67,16.12-19,17.83-31,15.2-38.79-2-6-7-10.73-5.9-12.9h0c2.4-2.52,9.73,3.5,18.87,4.71,7.22,1,18.12-.74,33-14.15l4.31-2.29Zm-64,11.69a9.46,9.46,0,1,1,9.46-9.46A9.45,9.45,0,0,1,1486.85,522.67Z" transform="translate(-20.76 -87.06)"/><text class="cls-4" transform="translate(502.3 283.18)">Design <tspan class="cls-5" x="434.87" y="0">W</tspan><tspan x="549.47" y="0">ork</tspan></text><path class="cls-1" d="M1054.58,114.21l54.81.65q-.32,6.21-.65,12.4a23.11,23.11,0,0,0-7.83-1.3,24.13,24.13,0,0,0-13.7,4.57c-27.34,69.72-41.49,108.77-43.08,118.77a22,22,0,0,1-5.22,11.75c-3.76,4.12-8.72,5.77-12.4,6.52l-43.07.66a28.06,28.06,0,0,1-8.48-9.79c-4.69-9.2-1.77-17.37-7.18-21.54a11.49,11.49,0,0,0-7.83-2l-.66-6.52H988v6.52c-1.62-.3-7.65-1.27-10.44,2-3.77,4.37.76,14.39,6.52,18.93,7.56,5.94,20.32,4.89,32-2.61l47.64-124a22,22,0,0,0-7.18-3.26,21.69,21.69,0,0,0-5.87-.65Q1052.61,119.76,1054.58,114.21Z" transform="translate(-20.76 -87.06)"/><path class="cls-1" d="M1075.46,94.63H975.61v11.75a18.52,18.52,0,0,1,11.75-.65,19,19,0,0,1,7.18,4.57c5.67,5.82,34.15,65.49,71.13,148.14h-10.44c.22,3.26.43,6.52.65,9.79h57.43q-.33-5.22-.65-10.44h-37.85l-42.87-93.9,22.64-.73c.21-1.74.43-3.48.65-5.22l-25.45.65c-.61-1.07-11.54-20.76-7.43-36.31a37.63,37.63,0,0,1,6.12-12.64,24,24,0,0,1,7.18-6.52c6.62-3.86,13.31-3.22,19.58-2.61a57.45,57.45,0,0,1,20.23,5.87Z" transform="translate(-20.76 -87.06)"/><path class="cls-1" d="M1015.42,200.36" transform="translate(-20.76 -87.06)"/></svg>